<?xml version="1.0" encoding="UTF-8"?>
<svg version="1.1" xmlns="http://www.w3.org/2000/svg" width="225" height="225">
<path d="M0 0 C15.5651242 -0.39493599 29.88945052 2.35321065 44.09765625 8.66796875 C47.65009051 10.13467857 51.0669816 11.05625442 54.8046875 11.93359375 C63.3149971 14.05877912 71.89655532 17.31333432 78.6171875 23.12109375 C78.6171875 23.78109375 78.6171875 24.44109375 78.6171875 25.12109375 C79.2771875 25.12109375 79.9371875 25.12109375 80.6171875 25.12109375 C84.69914335 30.68739718 86.47403915 35.19177174 85.6171875 42.12109375 C83.28255718 49.94284884 77.641997 54.72978434 70.81640625 58.78515625 C50.75924829 69.34703191 25.33005781 70.32497485 3.7265625 64.19140625 C-0.97473709 62.87421191 -5.73739852 62.31005745 -10.5703125 61.68359375 C-25.43651158 59.63210645 -40.32324382 55.10934998 -50.04296875 42.98828125 C-53.63713632 37.97949962 -54.16222024 33.15391211 -53.3828125 27.12109375 C-51.10015113 18.97092026 -44.61472015 13.82204657 -37.7265625 9.42578125 C-26.28279854 3.16943777 -12.92990135 0.65709335 0 0 Z M-44.3828125 20.12109375 C-47.56874527 24.0238614 -49.17617815 27.05855221 -49.3828125 32.12109375 C-48.23825513 38.53061502 -45.53746929 42.82019245 -40.34765625 46.60546875 C-36.64687673 49.21310452 -36.64687673 49.21310452 -32.3828125 50.12109375 C-32.64957454 48.13617733 -32.64957454 48.13617733 -33.3828125 46.12109375 C-34.3728125 45.79109375 -35.3628125 45.46109375 -36.3828125 45.12109375 C-37.3828125 43.37109375 -37.3828125 43.37109375 -38.3828125 41.12109375 C-38.9190625 40.39921875 -39.4553125 39.67734375 -40.0078125 38.93359375 C-41.96415514 34.93198381 -42.05833138 31.49695492 -41.3828125 27.12109375 C-39.59840979 22.21878307 -36.55066913 19.16250265 -32.3828125 16.12109375 C-32.0528125 15.46109375 -31.7228125 14.80109375 -31.3828125 14.12109375 C-10.84761064 5.20851344 11.97108372 5.0996693 32.91015625 12.31640625 C35.78553523 13.31105103 35.78553523 13.31105103 39.6171875 13.12109375 C39.6171875 14.11109375 39.6171875 15.10109375 39.6171875 16.12109375 C41.09271684 17.3670963 42.5723318 18.60913263 44.0859375 19.80859375 C47.28936359 22.55438754 48.4319182 25.41971711 49.4921875 29.43359375 C49.64560446 33.95939422 48.92588486 37.21849145 46.6171875 41.12109375 C44.73753605 43.01050962 42.74799802 44.49982488 40.6171875 46.12109375 C40.2871875 47.11109375 39.9571875 48.10109375 39.6171875 49.12109375 C40.2771875 49.45109375 40.9371875 49.78109375 41.6171875 50.12109375 C47.44632718 47.6003847 52.05656857 43.32033661 55.6171875 38.12109375 C57.14409163 33.54038137 57.14821003 29.71416134 55.6171875 25.12109375 C48.53256293 14.49415689 36.57680173 9.44234389 24.50390625 6.6640625 C2.14100549 2.45777941 -27.14838961 3.37057474 -44.3828125 20.12109375 Z M-23.3828125 15.12109375 C-24.62037312 17.16705958 -24.62037312 17.16705958 -25.3828125 19.12109375 C-24.42375 18.71890625 -24.42375 18.71890625 -23.4453125 18.30859375 C-7.33518083 12.061808 7.95487797 10.10268857 24.6171875 16.12109375 C27.36109219 17.3471907 29.96439579 18.69995533 32.6171875 20.12109375 C33.6071875 20.45109375 34.5971875 20.78109375 35.6171875 21.12109375 C35.6171875 21.78109375 35.6171875 22.44109375 35.6171875 23.12109375 C36.2771875 23.12109375 36.9371875 23.12109375 37.6171875 23.12109375 C37.9059375 24.09046875 38.1946875 25.05984375 38.4921875 26.05859375 C39.25933432 29.22773578 39.25933432 29.22773578 41.6171875 30.12109375 C41.6171875 33.12109375 41.6171875 33.12109375 39.9296875 34.93359375 C39.1665625 35.65546875 38.4034375 36.37734375 37.6171875 37.12109375 C36.8746875 38.11109375 36.1321875 39.10109375 35.3671875 40.12109375 C30.23863386 46.31019358 22.11654953 48.03945233 14.6171875 49.87109375 C13.74707031 50.09152344 12.87695312 50.31195313 11.98046875 50.5390625 C9.86143939 51.07464135 7.73959207 51.59905069 5.6171875 52.12109375 C5.6171875 52.45109375 5.6171875 52.78109375 5.6171875 53.12109375 C11.92858564 53.6557063 17.5917544 52.88277074 23.6796875 51.30859375 C24.34685791 51.14327148 25.01402832 50.97794922 25.70141602 50.80761719 C27.80683415 50.26334267 27.80683415 50.26334267 30.6171875 49.12109375 C30.9471875 48.13109375 31.2771875 47.14109375 31.6171875 46.12109375 C32.3390625 46.18296875 33.0609375 46.24484375 33.8046875 46.30859375 C37.17918065 46.08362754 38.92312661 45.12239612 41.6171875 43.12109375 C41.6171875 42.46109375 41.6171875 41.80109375 41.6171875 41.12109375 C42.2771875 41.12109375 42.9371875 41.12109375 43.6171875 41.12109375 C45.91186321 37.90854776 47.42829522 35.08783167 47.6171875 31.12109375 C45.94570215 25.92091711 43.72165809 22.69935016 39.6171875 19.12109375 C36.90839415 17.76669707 34.60785482 18.05607924 31.6171875 18.12109375 C31.5339624 17.49549561 31.4507373 16.86989746 31.36499023 16.2253418 C30.82782183 13.99354268 30.82782183 13.99354268 28.88696289 13.12036133 C23.29725331 11.45132644 17.86276015 10.36043236 12.0546875 9.80859375 C10.75857544 9.68460205 10.75857544 9.68460205 9.4362793 9.55810547 C-1.0620549 8.71051582 -14.5574491 8.53435911 -23.3828125 15.12109375 Z M-25.3828125 23.12109375 C-27.2363901 24.95812398 -27.2363901 24.95812398 -28.3828125 27.12109375 C-27.66766856 30.83404659 -27.66766856 30.83404659 -26.3828125 34.12109375 C-27.0428125 34.12109375 -27.7028125 34.12109375 -28.3828125 34.12109375 C-27.45415636 38.18396437 -25.76548681 39.80838591 -22.3828125 41.99609375 C-20.34787838 43.31267439 -20.34787838 43.31267439 -18.3828125 44.12109375 C-17.7228125 43.79109375 -17.0628125 43.46109375 -16.3828125 43.12109375 C-16.7128125 41.80109375 -17.0428125 40.48109375 -17.3828125 39.12109375 C-18.0428125 39.12109375 -18.7028125 39.12109375 -19.3828125 39.12109375 C-21.91323429 31.58112073 -21.91323429 31.58112073 -20.625 28.03515625 C-19.61117653 26.35490337 -18.50155128 24.73339376 -17.3828125 23.12109375 C-17.3828125 22.46109375 -17.3828125 21.80109375 -17.3828125 21.12109375 C-16.34640625 20.92773438 -15.31 20.734375 -14.2421875 20.53515625 C-12.87233641 20.27244508 -11.50254798 20.00940704 -10.1328125 19.74609375 C-9.10994141 19.55660156 -9.10994141 19.55660156 -8.06640625 19.36328125 C-4.55796274 18.68203008 -1.47241577 17.9525596 1.6171875 16.12109375 C-7.80928551 13.81684479 -17.70453489 17.47436043 -25.3828125 23.12109375 Z M5.6171875 17.12109375 C7.47923828 17.43240234 7.47923828 17.43240234 9.37890625 17.75 C11.02112127 18.05967483 12.66303358 18.37095804 14.3046875 18.68359375 C15.52961914 18.88178711 15.52961914 18.88178711 16.77929688 19.08398438 C21.24790533 19.97046945 23.89975175 20.83654492 26.66796875 24.578125 C28.73809971 27.84977869 29.29475545 30.22507803 28.6171875 34.12109375 C27.65286674 35.80865508 26.65508331 37.47775871 25.6171875 39.12109375 C25.6171875 40.44109375 25.6171875 41.76109375 25.6171875 43.12109375 C29.96590724 42.6193184 32.57322672 40.0958736 35.6171875 37.12109375 C35.6171875 35.80109375 35.6171875 34.48109375 35.6171875 33.12109375 C34.9571875 33.12109375 34.2971875 33.12109375 33.6171875 33.12109375 C34.6171875 30.12109375 34.6171875 30.12109375 36.6171875 28.12109375 C31.2822488 20.47434828 23.63549698 17.07579339 14.59375 15.3984375 C9.59055114 14.52396905 9.59055114 14.52396905 5.6171875 17.12109375 Z M-35.83203125 22.3828125 C-38.46319171 25.33209816 -39.32069529 27.56203888 -39.7578125 31.49609375 C-39.16851272 37.19265831 -36.56004759 39.9950428 -32.5078125 43.87109375 C-29.40524256 46.1049441 -27.01805584 47.06081444 -23.3828125 48.12109375 C-21.990625 48.86359375 -21.990625 48.86359375 -20.5703125 49.62109375 C-13.02700229 53.17088679 -5.61440851 53.39804464 2.6171875 53.12109375 C-0.32769424 50.17621201 -3.92429927 50.1163473 -7.8828125 49.37109375 C-16.33206395 47.62903181 -24.78486134 45.48930399 -29.8203125 37.87109375 C-30.3359375 36.96359375 -30.8515625 36.05609375 -31.3828125 35.12109375 C-32.3728125 34.46109375 -33.3628125 33.80109375 -34.3828125 33.12109375 C-32.98982695 30.11978188 -31.34326182 27.61051966 -29.3203125 24.99609375 C-27.15055055 22.18482112 -27.15055055 22.18482112 -25.3828125 19.12109375 C-30.26122609 17.05146374 -32.26816418 19.19824835 -35.83203125 22.3828125 Z M-8.3828125 22.12109375 C-9.3728125 23.60609375 -9.3728125 23.60609375 -10.3828125 25.12109375 C-11.5378125 25.40984375 -12.6928125 25.69859375 -13.8828125 25.99609375 C-17.47898977 26.76391426 -17.47898977 26.76391426 -19.0078125 29.43359375 C-19.60657604 32.17056332 -19.60657604 32.17056332 -18.3828125 34.80859375 C-15.91178297 37.66572164 -13.97086794 38.09593505 -10.3828125 39.12109375 C-9.48755859 39.86552734 -9.48755859 39.86552734 -8.57421875 40.625 C-3.59286297 44.02581866 3.90049892 43.46628925 9.69140625 42.73046875 C12.02611454 42.2641932 14.3209627 41.74827931 16.6171875 41.12109375 C16.6171875 40.46109375 16.6171875 39.80109375 16.6171875 39.12109375 C19.64453125 38.48632812 19.64453125 38.48632812 22.671875 37.8515625 C24.98765299 37.19800537 24.98765299 37.19800537 26.6171875 34.12109375 C26.27273152 29.61259193 26.27273152 29.61259193 23.6171875 26.12109375 C21.62897437 25.72345112 19.62774411 25.38334026 17.6171875 25.12109375 C17.1221875 23.63609375 17.1221875 23.63609375 16.6171875 22.12109375 C8.17078394 19.25534969 0.06729244 19.3043921 -8.3828125 22.12109375 Z M-16.3828125 44.12109375 C-7.8972327 49.77814695 4.74876507 49.16881004 14.40234375 47.4453125 C17.49616537 46.73497914 20.55998033 45.97426784 23.6171875 45.12109375 C23.6171875 44.79109375 23.6171875 44.46109375 23.6171875 44.12109375 C17.59460491 43.99602149 17.59460491 43.99602149 11.6171875 44.62109375 C5.15382104 45.69832149 -0.9346774 45.04225591 -7.3828125 44.12109375 C-10.38507477 44.03917006 -13.38030657 44.05981812 -16.3828125 44.12109375 Z M-28.3828125 53.12109375 C-26.05121946 53.77381836 -23.71783454 54.41834577 -21.3828125 55.05859375 C-20.73441406 55.24099609 -20.08601563 55.42339844 -19.41796875 55.61132812 C-1.57720707 60.46896126 18.25400613 59.23676253 35.6171875 53.12109375 C33.20311823 51.57675844 32.08638168 51.03793576 29.21484375 51.546875 C27.95994141 51.98580078 27.95994141 51.98580078 26.6796875 52.43359375 C11.03170546 57.7785768 -7.97844336 56.65456412 -23.51953125 51.3984375 C-25.71595214 50.85846434 -25.71595214 50.85846434 -28.3828125 53.12109375 Z " fill="#5D5D5D" transform="translate(93.3828125,103.87890625)"/>
<path d="M0 0 C3.90628304 2.00592913 7.58313521 4.23457485 11 7 C11 7.66 11 8.32 11 9 C11.66 9 12.32 9 13 9 C17.08195585 14.56630343 18.85685165 19.07067799 18 26 C15.66536968 33.82175509 10.0248095 38.60869059 3.19921875 42.6640625 C-17.1380622 53.3734478 -42.69897889 54.00669369 -64.64453125 48.16796875 C-67.93577084 47.02235683 -70.92925037 45.64118166 -74 44 C-74 43.67 -74 43.34 -74 43 C-73.02804688 42.98582031 -72.05609375 42.97164062 -71.0546875 42.95703125 C-62.28821919 42.70011468 -53.99107704 41.58739325 -45.4375 39.625 C-44.52274902 39.41593018 -43.60799805 39.20686035 -42.66552734 38.99145508 C-30.91468282 36.17464847 -20.22975518 32.16684322 -13 22 C-10.7132399 15.13971971 -12.53099118 9.48114816 -15 3 C-10.69702856 -1.71277824 -5.92938696 -1.61229987 0 0 Z " fill="#0C0C0C" transform="translate(161,120)"/>
<path d="M0 0 C15.54597175 -0.39445003 29.85624846 2.34661568 44.05078125 8.64453125 C47.84538086 10.2155703 51.58232673 11.3067324 55.5546875 12.30859375 C56.23853516 12.48583984 56.92238281 12.66308594 57.62695312 12.84570312 C59.2890956 13.27576796 60.95296538 13.69914812 62.6171875 14.12109375 C60.59232961 15.14623101 58.5917066 16.13158588 56.4921875 16.99609375 C54.18421448 18.38087756 53.71671954 19.71769185 52.6171875 22.12109375 C51.2559375 20.82171875 51.2559375 20.82171875 49.8671875 19.49609375 C34.25624282 6.20951508 13.16092857 5.11598707 -6.3828125 6.12109375 C-20.17686161 7.41618721 -34.24444879 11.27824289 -44.3828125 21.12109375 C-47.12991554 24.64081952 -48.11530401 27.66261891 -48.3828125 32.12109375 C-47.40908544 37.16677033 -46.06977715 40.52630322 -42.3828125 44.12109375 C-39.77488425 45.76950123 -37.13561487 47.30705893 -34.4296875 48.7890625 C-33.75421875 49.22863281 -33.07875 49.66820312 -32.3828125 50.12109375 C-32.3828125 50.78109375 -32.3828125 51.44109375 -32.3828125 52.12109375 C-29.05486241 52.81612018 -25.71998689 53.47186884 -22.3828125 54.12109375 C-20.45888672 54.50007813 -20.45888672 54.50007813 -18.49609375 54.88671875 C-8.79001989 56.73625118 0.74657548 57.73583433 10.6171875 58.12109375 C10.6171875 58.45109375 10.6171875 58.78109375 10.6171875 59.12109375 C2.6971875 59.61609375 2.6971875 59.61609375 -5.3828125 60.12109375 C-4.7228125 60.78109375 -4.0628125 61.44109375 -3.3828125 62.12109375 C-18.98191721 61.31901212 -35.89707957 57.63193525 -47.6953125 46.55859375 C-52.1114906 41.43721444 -54.01509966 36.10376388 -53.71875 29.37890625 C-52.64530393 22.16435011 -48.46036115 17.54406423 -42.9765625 13.00390625 C-30.55395781 3.98629261 -15.11787042 0.76828522 0 0 Z " fill="#3A3A3A" transform="translate(93.3828125,103.87890625)"/>
<path d="M0 0 C-0.33 0.66 -0.66 1.32 -1 2 C-1.95261719 1.7834375 -2.90523437 1.566875 -3.88671875 1.34375 C-5.14097656 1.0653125 -6.39523438 0.786875 -7.6875 0.5 C-8.92886719 0.2215625 -10.17023438 -0.056875 -11.44921875 -0.34375 C-14.42398218 -0.89354126 -16.99368602 -1.13795705 -20 -1 C-19.01 -0.34 -18.02 0.32 -17 1 C-21.29 1 -25.58 1 -30 1 C-29.34 0.34 -28.68 -0.32 -28 -1 C-37.56000614 -0.59319123 -46.49526326 1.84226729 -54 8 C-55.52249091 11.14648121 -54.82920127 13.6831949 -54 17 C-54.66 17 -55.32 17 -56 17 C-54.94403202 20.65945598 -54.94403202 20.65945598 -52.1796875 23.0390625 C-51.46039063 23.35617188 -50.74109375 23.67328125 -50 24 C-49.33742188 24.33 -48.67484375 24.66 -47.9921875 25 C-42.4309949 27.62668876 -37.06520533 29.03767097 -31 30 C-31.66 30.99 -32.32 31.98 -33 33 C-42.14773364 32.3223901 -49.74127827 29.60755199 -56.72265625 23.5625 C-58.21133836 21.74148212 -58.4674973 20.26080093 -59 18 C-60.9837767 16.71563266 -60.9837767 16.71563266 -63 16 C-58.8287648 7.20711453 -53.00563359 0.64518803 -43.75 -2.6875 C-42.17450689 -3.15244316 -40.59041641 -3.58899351 -39 -4 C-38.16597656 -4.21785156 -37.33195312 -4.43570313 -36.47265625 -4.66015625 C-24.9628388 -7.21225968 -10.07884483 -6.71922989 0 0 Z " fill="#363636" transform="translate(121,121)"/>
<path d="M0 0 C16.4265435 -0.63861292 31.41125215 1.85823474 46.43359375 8.5234375 C50.22819336 10.09447655 53.96513923 11.18563865 57.9375 12.1875 C58.62134766 12.36474609 59.30519531 12.54199219 60.00976562 12.72460938 C61.6719081 13.15467421 63.33577788 13.57805437 65 14 C62.97514211 15.02513726 60.9745191 16.01049213 58.875 16.875 C56.56702698 18.25978381 56.09953204 19.5965981 55 22 C53.63875 20.700625 53.63875 20.700625 52.25 19.375 C44.03599612 12.38400676 34.40109481 9.16195127 24 7 C23.33605225 6.83516113 22.67210449 6.67032227 21.98803711 6.50048828 C16.2882617 5.1167133 10.79011716 4.59294075 4.9375 4.375 C3.6390918 4.31699219 3.6390918 4.31699219 2.31445312 4.2578125 C0.20993641 4.16479519 -1.8950009 4.08137331 -4 4 C-3.67 3.34 -3.34 2.68 -3 2 C-2.01 2 -1.02 2 0 2 C0 1.34 0 0.68 0 0 Z " fill="#363636" transform="translate(91,104)"/>
<path d="M0 0 C3.94120709 0.56302958 6.7508723 1.6791945 10 4 C10 4.66 10 5.32 10 6 C10.66 6 11.32 6 12 6 C12.268125 6.969375 12.53625 7.93875 12.8125 8.9375 C13.204375 9.948125 13.59625 10.95875 14 12 C14.99 12.33 15.98 12.66 17 13 C16.67 14.32 16.34 15.64 16 17 C15.34 17 14.68 17 14 17 C13.7215625 18.051875 13.7215625 18.051875 13.4375 19.125 C9.97366019 26.05267961 3.09784474 29.59122916 -4 32 C-15.01041053 35.14776154 -23.21121771 36.19563756 -34 32 C-34 31.67 -34 31.34 -34 31 C-32.47632812 30.92652344 -32.47632812 30.92652344 -30.921875 30.8515625 C-22.49306661 30.4069141 -14.30170535 29.61946146 -6 28 C-7.98 27.67 -9.96 27.34 -12 27 C-12 26.34 -12 25.68 -12 25 C-8.30458414 24.04975021 -5.69541586 24.04975021 -2 25 C-1.67 24.34 -1.34 23.68 -1 23 C-0.505 24.485 -0.505 24.485 0 26 C1.11375 25.38125 2.2275 24.7625 3.375 24.125 C4.00148437 23.77695313 4.62796875 23.42890625 5.2734375 23.0703125 C7.62304071 21.61377114 8.83541364 20.55959361 9.625 17.875 C9.74875 17.25625 9.8725 16.6375 10 16 C9.34 16 8.68 16 8 16 C8.165 15.401875 8.33 14.80375 8.5 14.1875 C9.1114124 11.88655664 9.1114124 11.88655664 9 9 C7.26352342 7.41817596 7.26352342 7.41817596 5.0625 6 C1.1070615 3.32118451 1.1070615 3.32118451 0 0 Z " fill="#313131" transform="translate(119,121)"/>
<path d="M0 0 C1.44790266 0.01508232 2.89582062 0.02876442 4.34375 0.04101562 C7.85448994 0.07372151 11.36464399 0.12530489 14.875 0.1875 C14.875 0.5175 14.875 0.8475 14.875 1.1875 C14.18051758 1.23237549 13.48603516 1.27725098 12.77050781 1.32348633 C9.55448013 1.53776365 6.33985425 1.7688072 3.125 2 C2.03316406 2.07025391 0.94132812 2.14050781 -0.18359375 2.21289062 C-15.15758169 3.19096701 -15.15758169 3.19096701 -27.125 11.1875 C-28.28 11.331875 -29.435 11.47625 -30.625 11.625 C-34.33262988 12.22086909 -34.75403425 12.42464812 -37 15.125 C-40.06535343 19.54271523 -40.57765401 21.75565192 -40.125 27.1875 C-37.83443792 31.51411727 -35.21374723 34.49491036 -31.125 37.1875 C-28.43992671 37.97696609 -28.43992671 37.97696609 -26.125 38.1875 C-26.455 39.1775 -26.785 40.1675 -27.125 41.1875 C-28.775 40.8575 -30.425 40.5275 -32.125 40.1875 C-32.125 40.8475 -32.125 41.5075 -32.125 42.1875 C-32.785 42.1875 -33.445 42.1875 -34.125 42.1875 C-34.351875 41.630625 -34.57875 41.07375 -34.8125 40.5 C-36.09522149 38.0012112 -36.09522149 38.0012112 -38.5625 35.75 C-42.32444649 31.98805351 -44.28527934 29.22789581 -44.625 23.875 C-44.39635175 17.33130497 -40.82011497 13.24912631 -36.8125 8.375 C-34.03045681 6.11054624 -31.80746568 4.99615342 -28.42602539 3.92578125 C-26.96542152 3.45714824 -25.51526825 2.95339159 -24.08325195 2.40356445 C-16.14048425 -0.42396651 -8.29637661 -0.15148414 0 0 Z " fill="#555555" transform="translate(95.125,111.8125)"/>
<path d="M0 0 C1.29550781 -0.03738281 2.59101562 -0.07476562 3.92578125 -0.11328125 C9.11448169 0.47401714 12.05856772 2.68356772 15.6875 6.3125 C15.60909592 9.91908749 15.13512776 11.77534669 12.8125 14.5625 C6.92541813 17.85926585 0.46443181 18.93334676 -6.1875 17.6875 C-9.97184554 16.60722901 -12.72904639 15.39597689 -15.3125 12.3125 C-15.9375 8.8125 -15.9375 8.8125 -15.3125 5.3125 C-10.65166926 0.52570086 -6.46844695 0.1215633 0 0 Z M-12.3125 6.3125 C-11.73797254 10.24325644 -11.73797254 10.24325644 -9.3125 13.3125 C-3.39050384 15.32959913 3.47958062 15.07385151 9.3125 13.0625 C11.82101291 11.53608699 11.82101291 11.53608699 12.5625 9.125 C12.60375 8.526875 12.645 7.92875 12.6875 7.3125 C5.59177693 1.68485757 -4.70906401 1.24354267 -12.3125 6.3125 Z " fill="#4F4F4F" transform="translate(97.3125,126.6875)"/>
<path d="M0 0 C-0.99 0.66 -1.98 1.32 -3 2 C2.94 2.33 8.88 2.66 15 3 C15 3.33 15 3.66 15 4 C13.8140625 4.03738281 12.628125 4.07476562 11.40625 4.11328125 C-2.18560856 4.62871277 -15.67146173 5.47681939 -28.1796875 11.328125 C-28.78039063 11.54984375 -29.38109375 11.7715625 -30 12 C-32 11 -32 11 -34 8 C-24.12827736 2.11897375 -11.45518296 -0.83310422 0 0 Z " fill="#373737" transform="translate(91,105)"/>
<path d="M0 0 C9.38373714 0.66788165 9.38373714 0.66788165 13.06640625 3.703125 C15.54509491 6.83284274 16.86513268 9.23575185 17.5625 13.1875 C16.926013 16.36993498 15.82516008 18.33245835 14 21 C13.31903578 22.32608822 12.64669414 23.65686601 12 25 C11.67 24.67 11.34 24.34 11 24 C8.67182036 23.63239269 6.3381615 23.29758419 4 23 C4 22.34 4 21.68 4 21 C6.64 20.34 9.28 19.68 12 19 C13.19988045 13.71800407 13.19988045 13.71800407 11 9 C7.44327821 7.7811879 7.44327821 7.7811879 4 7 C4 6.01 4 5.02 4 4 C1.36 3.67 -1.28 3.34 -4 3 C-2.68 2.67 -1.36 2.34 0 2 C0 1.34 0 0.68 0 0 Z " fill="#717171" transform="translate(106,122)"/>
<path d="M0 0 C-2.60662526 2.6832907 -5.18548886 5.18513498 -8.125 7.5 C-14.18029649 12.76547521 -14.86067063 18.34638743 -16 26 C-17.32 25.67 -18.64 25.34 -20 25 C-20.5483255 18.42009405 -20.00841724 13.39391238 -16 8 C-6.61631757 -1.56702258 -6.61631757 -1.56702258 0 0 Z " fill="#292929" transform="translate(60,115)"/>
<path d="M0 0 C20.28838659 0.8589244 20.28838659 0.8589244 28 6 C27.67 6.66 27.34 7.32 27 8 C26.04738281 7.7834375 25.09476563 7.566875 24.11328125 7.34375 C22.85902344 7.0653125 21.60476562 6.786875 20.3125 6.5 C19.07113281 6.2215625 17.82976562 5.943125 16.55078125 5.65625 C13.57601782 5.10645874 11.00631398 4.86204295 8 5 C8.99 5.66 9.98 6.32 11 7 C6.71 7 2.42 7 -2 7 C-1.34 5.68 -0.68 4.36 0 3 C-0.99 2.67 -1.98 2.34 -3 2 C-2.01 2 -1.02 2 0 2 C0 1.34 0 0.68 0 0 Z " fill="#5F5F5F" transform="translate(93,115)"/>
<path d="M0 0 C0 0.66 0 1.32 0 2 C-0.62567871 2.03963867 -1.25135742 2.07927734 -1.89599609 2.12011719 C-4.72406072 2.31037167 -7.54911601 2.52980125 -10.375 2.75 C-11.85226563 2.8428125 -11.85226563 2.8428125 -13.359375 2.9375 C-14.30039063 3.01484375 -15.24140625 3.0921875 -16.2109375 3.171875 C-17.51490479 3.2661377 -17.51490479 3.2661377 -18.84521484 3.36230469 C-21.18137692 3.77793289 -21.18137692 3.77793289 -22.08056641 5.98144531 C-22.38397949 6.64756836 -22.68739258 7.31369141 -23 8 C-25.31029085 8.74259349 -27.645752 9.411438 -30 10 C-30.66 10.66 -31.32 11.32 -32 12 C-32.66 11.67 -33.32 11.34 -34 11 C-33.33333333 9.66666667 -32.66666667 8.33333333 -32 7 C-31.72671875 6.3296875 -31.4534375 5.659375 -31.171875 4.96875 C-29.27719647 1.78569008 -26.94086359 1.47327628 -23.484375 0.52734375 C-15.73833627 -0.64498274 -7.81200626 -0.22173817 0 0 Z " fill="#383838" transform="translate(106,122)"/>
<path d="M0 0 C0.66 0 1.32 0 2 0 C1.125 4.75 1.125 4.75 0 7 C-0.55004295 12.72044663 0.35635971 15.56854559 4 20 C7.22827752 23.06272483 9.56120611 24.49270927 14 25 C13.67 25.99 13.34 26.98 13 28 C11.35 27.67 9.7 27.34 8 27 C8 27.66 8 28.32 8 29 C7.34 29 6.68 29 6 29 C5.773125 28.443125 5.54625 27.88625 5.3125 27.3125 C4.02977851 24.8137112 4.02977851 24.8137112 1.5625 22.5625 C-2.26439038 18.73560962 -4.16398419 16.00546454 -4.4375 10.5625 C-4.28983533 5.91494878 -3.03533839 3.48171169 0 0 Z " fill="#585858" transform="translate(55,125)"/>
<path d="M0 0 C0.33 0 0.66 0 1 0 C1.2475 1.051875 1.495 2.10375 1.75 3.1875 C4.1244575 11.17722861 10.07164375 14.15238231 17 18 C16.34 18.33 15.68 18.66 15 19 C15 19.99 15 20.98 15 22 C10.25397284 20.70941367 7.3540121 18.95263081 3.75 15.625 C2.89921875 14.85414063 2.0484375 14.08328125 1.171875 13.2890625 C-1.78430815 10.17337307 -3 8.31177217 -3 4 C-2.34 4 -1.68 4 -1 4 C-0.67 2.68 -0.34 1.36 0 0 Z " fill="#2C2C2C" transform="translate(44,136)"/>
<path d="M0 0 C3.94120709 0.56302958 6.7508723 1.6791945 10 4 C10 4.66 10 5.32 10 6 C10.66 6 11.32 6 12 6 C12.268125 6.969375 12.53625 7.93875 12.8125 8.9375 C13.204375 9.948125 13.59625 10.95875 14 12 C14.99 12.33 15.98 12.66 17 13 C16.67 14.32 16.34 15.64 16 17 C15.34 17 14.68 17 14 17 C13.67 17.66 13.34 18.32 13 19 C13 18.34 13 17.68 13 17 C12.34 17 11.68 17 11 17 C10.67 17.66 10.34 18.32 10 19 C10 18.01 10 17.02 10 16 C9.34 16 8.68 16 8 16 C8.165 15.401875 8.33 14.80375 8.5 14.1875 C9.1114124 11.88655664 9.1114124 11.88655664 9 9 C7.26352342 7.41817596 7.26352342 7.41817596 5.0625 6 C1.1070615 3.32118451 1.1070615 3.32118451 0 0 Z " fill="#464646" transform="translate(119,121)"/>
<path d="M0 0 C4.92611873 0.04105099 9.43736812 1.68657514 14.0625 3.25 C12.03764211 4.27513726 10.0370191 5.26049213 7.9375 6.125 C5.62952698 7.50978381 5.16203204 8.8465981 4.0625 11.25 C2.90731082 10.34515208 1.76364594 9.4255794 0.625 8.5 C-0.33212891 7.73429687 -0.33212891 7.73429687 -1.30859375 6.953125 C-3.13429464 5.0442387 -3.63669045 3.8533699 -3.9375 1.25 C-2.9375 0.25 -2.9375 0.25 0 0 Z " fill="#1F1F1F" transform="translate(141.9375,114.75)"/>
<path d="M0 0 C0.66 0 1.32 0 2 0 C1.91677262 2.82973089 1.44662957 4.53040747 -0.51953125 6.59765625 C-5.32572943 10.71580921 -8.43479951 13.29178669 -15 13 C-14.67 12.34 -14.34 11.68 -14 11 C-16.97 10.67 -19.94 10.34 -23 10 C-23 9.34 -23 8.68 -23 8 C-19.30458414 7.04975021 -16.69541586 7.04975021 -13 8 C-12.67 7.34 -12.34 6.68 -12 6 C-11.67 6.99 -11.34 7.98 -11 9 C-6.14079222 6.47694981 -3.32831385 4.4377518 0 0 Z " fill="#404040" transform="translate(130,138)"/>
<path d="M0 0 C0.66 0.33 1.32 0.66 2 1 C2 1.66 2 2.32 2 3 C9.61123471 6.8226829 16.52845628 9.65587198 25 11 C24.01 12.485 24.01 12.485 23 14 C12.87748129 13.2501838 5.34085541 10.02168778 -2 3 C-1.34 2.67 -0.68 2.34 0 2 C0 1.34 0 0.68 0 0 Z " fill="#535353" transform="translate(65,140)"/>
<path d="M0 0 C0 0.99 0 1.98 0 3 C-1.59328125 3.36351563 -1.59328125 3.36351563 -3.21875 3.734375 C-10.61213617 5.4709123 -17.38059632 7.13868119 -24 11 C-24 10.34 -24 9.68 -24 9 C-24.66 8.67 -25.32 8.34 -26 8 C-18.08613583 2.94392011 -9.51034548 -0.32973826 0 0 Z " fill="#5F5F5F" transform="translate(93,116)"/>
<path d="M0 0 C0.969375 0.45375 1.93875 0.9075 2.9375 1.375 C7.16579678 3.20321849 11.49109461 4.1309366 16 5 C15.67 5.99 15.34 6.98 15 8 C10.56902193 7.61819237 6.46958466 7.13856597 2.1875 5.875 C-1.01308534 4.99640795 -1.9704256 5.13440731 -5 6 C-5.99 5.34 -6.98 4.68 -8 4 C-7.34 3.01 -6.68 2.02 -6 1 C-3.4375 0.875 -3.4375 0.875 -1 1 C-0.67 0.67 -0.34 0.34 0 0 Z " fill="#707070" transform="translate(69,151)"/>
<path d="M0 0 C1.01725914 0.00424484 1.01725914 0.00424484 2.05506897 0.00857544 C4.19445391 0.01965834 6.33340055 0.0447389 8.47265625 0.0703125 C9.93423869 0.08035774 11.39582778 0.08948087 12.85742188 0.09765625 C16.41680604 0.11955825 19.97593828 0.15400384 23.53515625 0.1953125 C23.53515625 0.5253125 23.53515625 0.8553125 23.53515625 1.1953125 C22.84067383 1.2454248 22.14619141 1.29553711 21.43066406 1.34716797 C18.21504751 1.58249603 15.00013016 1.82636771 11.78515625 2.0703125 C10.14740234 2.18826172 10.14740234 2.18826172 8.4765625 2.30859375 C1.07574055 2.87788775 -6.1653569 3.84997514 -13.46484375 5.1953125 C-13.79484375 4.2053125 -14.12484375 3.2153125 -14.46484375 2.1953125 C-9.46818653 0.56823201 -5.3100298 -0.04406664 0 0 Z " fill="#404040" transform="translate(86.46484375,111.8046875)"/>
<path d="M0 0 C1.36125 0.7115625 1.36125 0.7115625 2.75 1.4375 C7.92493256 3.69953238 13.42797318 3.73466539 19 4 C19 4.99 19 5.98 19 7 C13.01268392 8.08860292 7.76613215 8.22911618 2 6 C0.23828125 4.421875 0.23828125 4.421875 -1 3 C-0.67 2.01 -0.34 1.02 0 0 Z " fill="#4D4D4D" transform="translate(85,137)"/>
<path d="M0 0 C0.79921875 0.01804687 1.5984375 0.03609375 2.421875 0.0546875 C3.02515625 0.07789062 3.6284375 0.10109375 4.25 0.125 C3.26 0.785 2.27 1.445 1.25 2.125 C7.19 2.455 13.13 2.785 19.25 3.125 C19.25 3.455 19.25 3.785 19.25 4.125 C5.885 4.62 5.885 4.62 -7.75 5.125 C-8.08 4.135 -8.41 3.145 -8.75 2.125 C-5.68753253 0.34090198 -3.52920727 -0.10380021 0 0 Z " fill="#494949" transform="translate(86.75,104.875)"/>
<path d="M0 0 C2 1 2 1 2.8125 3.0625 C3.07831259 7.22689729 2.05641129 10.38304964 0 14 C-1.88293281 15.98807119 -3.75133086 17.40094639 -6 19 C-6 18.34 -6 17.68 -6 17 C-6.66 16.67 -7.32 16.34 -8 16 C-7.34 16 -6.68 16 -6 16 C-6 15.34 -6 14.68 -6 14 C-5.34 14 -4.68 14 -4 14 C-1.59009896 7.11175931 -1.59009896 7.11175931 0 0 Z " fill="#5E5E5E" transform="translate(141,131)"/>
<path d="M0 0 C3.72433382 1.2125738 7.37802806 2.50859979 11 4 C10.34 5.32 9.68 6.64 9 8 C5.76344816 8 4.21247361 7.3449153 1.3125 6 C0.50425781 5.62875 -0.30398437 5.2575 -1.13671875 4.875 C-1.75160156 4.58625 -2.36648437 4.2975 -3 4 C-2.01 3.67 -1.02 3.34 0 3 C0 2.01 0 1.02 0 0 Z " fill="#4B4B4B" transform="translate(130,110)"/>
<path d="M0 0 C13.365 0.495 13.365 0.495 27 1 C27 1.33 27 1.66 27 2 C21.90663745 3.01703214 16.98461967 3.21644205 11.8125 3.25 C11.00619141 3.270625 10.19988281 3.29125 9.36914062 3.3125 C8.20608398 3.32023438 8.20608398 3.32023438 7.01953125 3.328125 C6.31932861 3.3374707 5.61912598 3.34681641 4.89770508 3.35644531 C3 3 3 3 0 0 Z " fill="#222222" transform="translate(82,157)"/>
<path d="M0 0 C0.66 0.66 1.32 1.32 2 2 C0.08654673 2.53251766 -1.8309295 3.05059483 -3.75 3.5625 C-4.81734375 3.85253906 -5.8846875 4.14257812 -6.984375 4.44140625 C-9.84335927 4.97098494 -11.31597383 4.98370862 -14 4 C-11.74611868 0.61917801 -11.32313206 0.51571162 -7.5625 -0.25 C-6.38880859 -0.50523437 -6.38880859 -0.50523437 -5.19140625 -0.765625 C-3 -1 -3 -1 0 0 Z " fill="#656565" transform="translate(116,150)"/>
<path d="M0 0 C4.76872236 2.03035122 7.62776072 5.43867227 10 10 C9.375 13 9.375 13 8 15 C7.7525 14.46375 7.505 13.9275 7.25 13.375 C5.03189239 9.16059555 2.55935309 5.20341778 -1 2 C-0.67 1.34 -0.34 0.68 0 0 Z " fill="#525252" transform="translate(133,120)"/>
<path d="M0 0 C0.75788818 -0.02126953 1.51577637 -0.04253906 2.29663086 -0.06445312 C4.46484375 -0.078125 4.46484375 -0.078125 8.0625 0.25 C8.7225 1.24 9.3825 2.23 10.0625 3.25 C6.0097484 4.23248524 2.22388263 4.33159574 -1.9375 4.25 C-1.9375 3.92 -1.9375 3.59 -1.9375 3.25 C-7.2175 2.92 -12.4975 2.59 -17.9375 2.25 C-17.9375 1.92 -17.9375 1.59 -17.9375 1.25 C-11.95708955 0.38012212 -6.03541083 0.08630174 0 0 Z " fill="#8B8B8B" transform="translate(104.9375,155.75)"/>
<path d="M0 0 C2.97 1.65 5.94 3.3 9 5 C8.01 5.495 8.01 5.495 7 6 C7 6.99 7 7.98 7 9 C2.56909529 7.79157144 0.01887244 6.48331435 -3 3 C-2.34 3 -1.68 3 -1 3 C-0.67 2.01 -0.34 1.02 0 0 Z " fill="#444444" transform="translate(52,149)"/>
<path d="M0 0 C0.66 0 1.32 0 2 0 C2 3.96 2 7.92 2 12 C0.68 11.67 -0.64 11.34 -2 11 C-2.05399736 9.54207116 -2.09279177 8.08357288 -2.125 6.625 C-2.15980469 5.40683594 -2.15980469 5.40683594 -2.1953125 4.1640625 C-2 2 -2 2 0 0 Z " fill="#242424" transform="translate(42,129)"/>
<path d="M0 0 C0.74958984 0.00451172 1.49917969 0.00902344 2.27148438 0.01367188 C4.11852383 0.02543646 5.96552213 0.04337135 7.8125 0.0625 C7.8125 0.7225 7.8125 1.3825 7.8125 2.0625 C1.2125 2.3925 -5.3875 2.7225 -12.1875 3.0625 C-9.97894074 -1.35461851 -4.30476406 -0.04887505 0 0 Z " fill="#2F2F2F" transform="translate(98.1875,121.9375)"/>
<path d="M0 0 C8.57142857 -0.28571429 8.57142857 -0.28571429 12 2 C12 2.99 12 3.98 12 5 C9.69 5 7.38 5 5 5 C5 4.34 5 3.68 5 3 C4.360625 2.87625 3.72125 2.7525 3.0625 2.625 C2.381875 2.41875 1.70125 2.2125 1 2 C0.67 1.34 0.34 0.68 0 0 Z " fill="#242424" transform="translate(118,108)"/>
<path d="M0 0 C-1 3 -1 3 -3 4 C-3 6.31 -3 8.62 -3 11 C-4.32 10.67 -5.64 10.34 -7 10 C-7.36426713 3.56461405 -7.36426713 3.56461405 -5.75 1.0625 C-4 0 -4 0 0 0 Z " fill="#424242" transform="translate(89,129)"/>
<path d="M0 0 C-0.66 0 -1.32 0 -2 0 C-1.67 0.99 -1.34 1.98 -1 3 C-6.05002222 4.03590199 -10.87416389 4.10251672 -16 4 C-16 3.67 -16 3.34 -16 3 C-15.21625 2.87625 -14.4325 2.7525 -13.625 2.625 C-10.85942178 2.20882007 -10.85942178 2.20882007 -9 0 C-5.42460821 -0.83679382 -3.52044638 -1.17348213 0 0 Z " fill="#727272" transform="translate(109,146)"/>
<path d="M0 0 C0.66 0 1.32 0 2 0 C1.45276317 3.37462715 0.9451 5.08235 -1 8 C-1.39013716 9.9896995 -1.73202649 11.99019869 -2 14 C-4 12 -4 12 -4.375 9.25 C-3.91040578 5.22351675 -2.52880371 3.12381635 0 0 Z " fill="#3F3F3F" transform="translate(55,125)"/>
<path d="M0 0 C7.42857143 -0.28571429 7.42857143 -0.28571429 11 2 C9.576875 2.12375 9.576875 2.12375 8.125 2.25 C4.89538209 2.65074923 4.89538209 2.65074923 3.625 5.0625 C3.41875 5.701875 3.2125 6.34125 3 7 C1.68 5.68 0.36 4.36 -1 3 C-0.67 2.01 -0.34 1.02 0 0 Z " fill="#303030" transform="translate(139,115)"/>
<path d="M0 0 C0 0.99 0 1.98 0 3 C-0.48082031 3.43957031 -0.96164063 3.87914063 -1.45703125 4.33203125 C-3.62901412 6.67997223 -3.50237853 8.54043507 -3.6875 11.6875 C-3.75324219 12.68136719 -3.81898437 13.67523438 -3.88671875 14.69921875 C-3.92410156 15.45847656 -3.96148437 16.21773437 -4 17 C-4.33 17 -4.66 17 -5 17 C-5 15.02 -5 13.04 -5 11 C-5.99 11.33 -6.98 11.66 -8 12 C-6.49087042 7.01987239 -3.44338151 3.75740058 0 0 Z " fill="#4B4B4B" transform="translate(49,118)"/>
<path d="M0 0 C2 1 2 1 3 3 C-0.33333333 4.66666667 -3.66666667 6.33333333 -7 8 C-7 7.34 -7 6.68 -7 6 C-7.66 5.67 -8.32 5.34 -9 5 C-7.54735962 4.1361871 -6.0876837 3.28419546 -4.625 2.4375 C-3.40683594 1.72400391 -3.40683594 1.72400391 -2.1640625 0.99609375 C-1.44992188 0.66738281 -0.73578125 0.33867188 0 0 Z " fill="#606060" transform="translate(76,119)"/>
<path d="M0 0 C2.64 0.33 5.28 0.66 8 1 C7.01 1.66 6.02 2.32 5 3 C6.32 3.99 7.64 4.98 9 6 C3.99109914 5.38487182 -1.00632136 4.7282448 -6 4 C-6 3.67 -6 3.34 -6 3 C-3.69 3 -1.38 3 1 3 C0.67 2.01 0.34 1.02 0 0 Z " fill="#686868" transform="translate(114,106)"/>
<path d="M0 0 C0 1.98 0 3.96 0 6 C-4.455 5.01 -4.455 5.01 -9 4 C-9 3.34 -9 2.68 -9 2 C-3.375 0 -3.375 0 0 0 Z " fill="#686868" transform="translate(119,141)"/>
<path d="M0 0 C-1.4375 2 -1.4375 2 -4 4 C-7.02824418 4.35442445 -9.96485939 4.23347235 -13 4 C-8.98163041 -0.22211791 -5.74554569 -0.13058058 0 0 Z " fill="#474747" transform="translate(124,154)"/>
<path d="M0 0 C0.66 0.33 1.32 0.66 2 1 C1.01 1.66 0.02 2.32 -1 3 C-0.67 3.99 -0.34 4.98 0 6 C-1.98 6.66 -3.96 7.32 -6 8 C-6 7.34 -6 6.68 -6 6 C-6.66 5.34 -7.32 4.68 -8 4 C-6.71349294 3.30289269 -5.42059335 2.61757124 -4.125 1.9375 C-3.40570313 1.55464844 -2.68640625 1.17179687 -1.9453125 0.77734375 C-1.30335937 0.52082031 -0.66140625 0.26429687 0 0 Z " fill="#5A5A5A" transform="translate(65,109)"/>
<path d="M0 0 C0.99 0.33 1.98 0.66 3 1 C3.32613618 5.67461851 2.70582788 8.16674383 0 12 C-0.66 10.68 -1.32 9.36 -2 8 C-1.67 7.67 -1.34 7.34 -1 7 C-0.63239269 4.67182036 -0.29758419 2.3381615 0 0 Z " fill="#4C4C4C" transform="translate(120,131)"/>
<path d="M0 0 C2.9375 0.8125 2.9375 0.8125 6 2 C6.33 2.99 6.66 3.98 7 5 C6.34 5 5.68 5 5 5 C4.67 5.66 4.34 6.32 4 7 C4 6.34 4 5.68 4 5 C3.34 5 2.68 5 2 5 C1.67 5.66 1.34 6.32 1 7 C1 6.01 1 5.02 1 4 C0.34 4 -0.32 4 -1 4 C-0.67 2.68 -0.34 1.36 0 0 Z " fill="#6E6E6E" transform="translate(128,133)"/>
<path d="M0 0 C0.99 0.33 1.98 0.66 3 1 C2.67 1.99 2.34 2.98 2 4 C2.99 3.34 3.98 2.68 5 2 C5.99 1.67 6.98 1.34 8 1 C8.33 2.32 8.66 3.64 9 5 C2.25 6.125 2.25 6.125 0 5 C0 3.35 0 1.7 0 0 Z " fill="#323232" transform="translate(125,117)"/>
<path d="M0 0 C7.42857143 -0.28571429 7.42857143 -0.28571429 11 2 C10.67 2.66 10.34 3.32 10 4 C7.03 3.67 4.06 3.34 1 3 C0.67 2.01 0.34 1.02 0 0 Z " fill="#585858" transform="translate(74,155)"/>
<path d="M0 0 C0.33 0 0.66 0 1 0 C2.67357513 5.28497409 2.67357513 5.28497409 3 8 C1.625 10.5 1.625 10.5 0 12 C-3 7.375 -3 7.375 -3 4 C-2.34 4 -1.68 4 -1 4 C-0.67 2.68 -0.34 1.36 0 0 Z " fill="#545454" transform="translate(44,136)"/>
<path d="M0 0 C0.33 0.99 0.66 1.98 1 3 C-0.45792884 3.05399736 -1.91642712 3.09279177 -3.375 3.125 C-4.18710938 3.14820312 -4.99921875 3.17140625 -5.8359375 3.1953125 C-8 3 -8 3 -10 1 C-6.78548731 -0.60725635 -3.56387464 -0.05748185 0 0 Z " fill="#050505" transform="translate(114,106)"/>
<path d="M0 0 C2.97 0 5.94 0 9 0 C9.66 1.32 10.32 2.64 11 4 C9.53984709 3.71758359 8.08190207 3.42373386 6.625 3.125 C5.81289062 2.96257812 5.00078125 2.80015625 4.1640625 2.6328125 C2 2 2 2 0 0 Z " fill="#3B3B3B" transform="translate(111,113)"/>
<path d="M0 0 C1.125 3.75 1.125 3.75 0 6 C-1.9375 6.75 -1.9375 6.75 -4 7 C-4.66 6.34 -5.32 5.68 -6 5 C-6 4.01 -6 3.02 -6 2 C-4.02 1.34 -2.04 0.68 0 0 Z " fill="#8F8F8F" transform="translate(133,150)"/>
<path d="M0 0 C2.97 0.33 5.94 0.66 9 1 C8.67 1.99 8.34 2.98 8 4 C6.35 3.67 4.7 3.34 3 3 C3 3.66 3 4.32 3 5 C2.34 5 1.68 5 1 5 C0.67 3.35 0.34 1.7 0 0 Z " fill="#353535" transform="translate(60,149)"/>
<path d="M0 0 C0.33 0.66 0.66 1.32 1 2 C1.99 2.33 2.98 2.66 4 3 C4 3.66 4 4.32 4 5 C3.01 5.495 3.01 5.495 2 6 C1.67 6.99 1.34 7.98 1 9 C1 8.34 1 7.68 1 7 C-0.32 6.34 -1.64 5.68 -3 5 C-1.125 1.125 -1.125 1.125 0 0 Z " fill="#838383" transform="translate(61,132)"/>
<path d="M0 0 C0.66 1.32 1.32 2.64 2 4 C0.35 5.65 -1.3 7.3 -3 9 C-3.33 8.34 -3.66 7.68 -4 7 C-4.66 6.67 -5.32 6.34 -6 6 C-5.195625 5.38125 -4.39125 4.7625 -3.5625 4.125 C-0.96125481 2.25835959 -0.96125481 2.25835959 0 0 Z " fill="#626262" transform="translate(61,118)"/>
<path d="M0 0 C2.97 0 5.94 0 9 0 C8.67 1.32 8.34 2.64 8 4 C5.64828869 3.40138258 3.3140622 2.73075648 1 2 C0.67 1.34 0.34 0.68 0 0 Z " fill="#131313" transform="translate(87,163)"/>
<path d="M0 0 C0 3 0 3 -1 6 C-4.4375 7.25 -4.4375 7.25 -8 8 C-8.66 7.67 -9.32 7.34 -10 7 C-9.36191406 6.57847656 -8.72382813 6.15695313 -8.06640625 5.72265625 C-7.24011719 5.17480469 -6.41382813 4.62695312 -5.5625 4.0625 C-4.73878906 3.51722656 -3.91507813 2.97195312 -3.06640625 2.41015625 C-1.10014075 1.16197019 -1.10014075 1.16197019 0 0 Z " fill="#474747" transform="translate(144,147)"/>
<path d="M0 0 C0.33 0.66 0.66 1.32 1 2 C3.31 2 5.62 2 8 2 C8 2.33 8 2.66 8 3 C6.329375 3.433125 6.329375 3.433125 4.625 3.875 C0.99708908 4.69241329 0.99708908 4.69241329 -1 7 C-1.66 6.67 -2.32 6.34 -3 6 C-2 4 -1 2 0 0 Z " fill="#646464" transform="translate(75,127)"/>
<path d="M0 0 C1.32 1.65 2.64 3.3 4 5 C3.34 6.65 2.68 8.3 2 10 C0.66666667 7.33333333 -0.66666667 4.66666667 -2 2 C-1.34 2 -0.68 2 0 2 C0 1.34 0 0.68 0 0 Z " fill="#6B6B6B" transform="translate(139,125)"/>
<path d="M0 0 C0.99 0.495 0.99 0.495 2 1 C2.99444068 4.34493684 3.10348268 6.68955197 2 10 C1.34 10 0.68 10 0 10 C0 6.7 0 3.4 0 0 Z " fill="#2F2F2F" transform="translate(141,131)"/>
<path d="M0 0 C-3 2 -3 2 -5 3 C-5.33 3.66 -5.66 4.32 -6 5 C-6 4.01 -6 3.02 -6 2 C-7.98 2 -9.96 2 -12 2 C-12 1.67 -12 1.34 -12 1 C-3.96428571 -1.27678571 -3.96428571 -1.27678571 0 0 Z " fill="#777777" transform="translate(90,123)"/>
<path d="M0 0 C0.66 0.33 1.32 0.66 2 1 C2 1.66 2 2.32 2 3 C2.99 3.33 3.98 3.66 5 4 C4.01 4.495 4.01 4.495 3 5 C2.67 5.66 2.34 6.32 2 7 C0.68 5.35 -0.64 3.7 -2 2 C-1.34 2 -0.68 2 0 2 C0 1.34 0 0.68 0 0 Z " fill="#6B6B6B" transform="translate(65,140)"/>
<path d="M0 0 C0.99 0.66 1.98 1.32 3 2 C2.34 3.32 1.68 4.64 1 6 C0.62875 5.525625 0.2575 5.05125 -0.125 4.5625 C-2.62646962 2.47794198 -4.81593418 2.35378509 -8 2 C-8 1.67 -8 1.34 -8 1 C-6.865625 1.020625 -5.73125 1.04125 -4.5625 1.0625 C-1.18424326 1.41577477 -1.18424326 1.41577477 0 0 Z " fill="#818181" transform="translate(119,128)"/>
<path d="M0 0 C1.65 0 3.3 0 5 0 C5.33 1.65 5.66 3.3 6 5 C3.36 4.67 0.72 4.34 -2 4 C-1.67 3.34 -1.34 2.68 -1 2 C0.32 2 1.64 2 3 2 C2.01 1.34 1.02 0.68 0 0 Z " fill="#1D1D1D" transform="translate(113,125)"/>
<path d="M0 0 C2.31 0 4.62 0 7 0 C7 0.66 7 1.32 7 2 C4.29120665 3.35439668 1.99066732 3.06501451 -1 3 C-0.67 2.01 -0.34 1.02 0 0 Z " fill="#404040" transform="translate(78,118)"/>
<path d="M0 0 C4.75 0.75 4.75 0.75 7 3 C6.625 5.125 6.625 5.125 6 7 C5.34 6.01 4.68 5.02 4 4 C1.94996045 2.80767387 1.94996045 2.80767387 0 2 C0 1.34 0 0.68 0 0 Z " fill="#5D5D5D" transform="translate(106,130)"/>
<path d="M0 0 C1.32 0.33 2.64 0.66 4 1 C4.33 2.32 4.66 3.64 5 5 C3.35 4.67 1.7 4.34 0 4 C0 2.68 0 1.36 0 0 Z " fill="#1F1F1F" transform="translate(59,155)"/>
<path d="M0 0 C2.31 0 4.62 0 7 0 C6.67 1.32 6.34 2.64 6 4 C4.125 3.6875 4.125 3.6875 2 3 C1.34 2.01 0.68 1.02 0 0 Z " fill="#6A6A6A" transform="translate(94,151)"/>
<path d="M0 0 C3.63 0 7.26 0 11 0 C7 3 7 3 4.375 2.8125 C2 2 2 2 0 0 Z " fill="#606060" transform="translate(83,146)"/>
<path d="M0 0 C3.465 1.485 3.465 1.485 7 3 C6.01 3.99 5.02 4.98 4 6 C1.525 5.01 1.525 5.01 -1 4 C-0.67 2.68 -0.34 1.36 0 0 Z " fill="#7B7B7B" transform="translate(85,137)"/>
<path d="M0 0 C2.31 0 4.62 0 7 0 C6.67 1.32 6.34 2.64 6 4 C4.68 4 3.36 4 2 4 C2 3.34 2 2.68 2 2 C1.34 1.34 0.68 0.68 0 0 Z " fill="#777777" transform="translate(93,115)"/>
<path d="M0 0 C-3 2 -3 2 -7 2 C-7.33 1.01 -7.66 0.02 -8 -1 C-4.37673261 -2.2077558 -3.35853631 -1.54311128 0 0 Z " fill="#313131" transform="translate(71,112)"/>
<path d="" fill="#D8D8D8" transform="translate(0,0)"/>
<path d="" fill="#FFFFFF" transform="translate(0,0)"/>
<path d="" fill="#FFFFFF" transform="translate(0,0)"/>
</svg>
