<?xml version="1.0" encoding="UTF-8"?>
<svg version="1.1" xmlns="http://www.w3.org/2000/svg" width="442" height="564">
<path d="M0 0 C3.6550285 2.06594947 5.25168031 3.20703525 7 7 C8.72417114 8.61277101 8.72417114 8.61277101 10.75 10 C11.73226562 10.7115625 11.73226562 10.7115625 12.734375 11.4375 C13.48203125 11.953125 14.2296875 12.46875 15 13 C15.93070312 13.66644531 16.86140625 14.33289063 17.8203125 15.01953125 C29.78240971 22.47012497 44.09854529 24.26166004 57.7734375 21.78125 C66.99477865 19.54847975 74.21592633 15.53739166 81.625 9.671875 C83.90598278 8.06618318 85.33486269 7.56929357 88 7 C88.29220695 14.94115362 87.19775294 22.42878408 85.875 30.25 C85.76429169 30.91029205 85.65358337 31.57058411 85.53952026 32.25088501 C83.67605103 43.26184127 81.15987881 53.93941185 77.76611328 64.58398438 C76.98292786 67.05383871 76.2364593 69.53262704 75.49609375 72.015625 C72.93335734 80.51043586 70.05189853 88.64901879 66.42578125 96.75390625 C65.04081401 99.90707823 63.81869032 103.08274926 62.625 106.3125 C58.30825589 117.64395328 53.27277522 128.5566824 46.51953125 138.6484375 C45.13925612 140.7844931 44.01589053 142.88870866 42.9375 145.1875 C41.21273487 148.81392924 38.96836961 151.7773512 36.50390625 154.93359375 C34.96381303 157.04972184 33.73111665 159.1921511 32.5 161.5 C30.40722092 165.42056341 27.97336612 168.87676229 25.234375 172.37109375 C23.9272484 173.99235951 23.9272484 173.99235951 23 176 C22.34 176 21.68 176 21 176 C20.75765625 176.54011719 20.5153125 177.08023438 20.265625 177.63671875 C14.44623523 188.50317187 4.94157928 197.53031466 -3.47753906 206.38037109 C-5.39220287 208.41723442 -7.23677809 210.50827874 -9.0625 212.625 C-13.32410634 217.55780934 -17.85484043 221.99820922 -23 226 C-23.66 226 -24.32 226 -25 226 C-25.25724854 226.59458008 -25.51449707 227.18916016 -25.77954102 227.80175781 C-27.11167678 230.20114777 -28.4085075 231.44567605 -30.52734375 233.171875 C-31.23173584 233.74993896 -31.93612793 234.32800293 -32.66186523 234.92358398 C-33.41282471 235.52630127 -34.16378418 236.12901855 -34.9375 236.75 C-35.70586182 237.37398682 -36.47422363 237.99797363 -37.26586914 238.64086914 C-43.04028376 243.30097617 -48.91711516 247.74872866 -55 252 C-55.80308594 252.57878906 -56.60617188 253.15757812 -57.43359375 253.75390625 C-90.96243864 277.73373612 -131.02872708 296.94415381 -171.40185547 305.44921875 C-174.49203211 306.104306 -177.57549693 306.78816438 -180.66015625 307.46875 C-203.21290913 312.3774416 -224.80870005 315.25281769 -247.875 315.4375 C-249.18617294 315.45595978 -249.18617294 315.45595978 -250.52383423 315.47479248 C-266.07447713 315.65806615 -275.77430031 313.12740211 -287.625 302.6875 C-297.20614415 291.84567899 -301.04056975 280.80265491 -300.44140625 266.4453125 C-299.60461564 255.54139473 -294.52799418 246.74185765 -287 239 C-284.05995157 236.49448703 -281.11733687 234.32695013 -277.75 232.4375 C-276.72132813 231.84775391 -276.72132813 231.84775391 -275.671875 231.24609375 C-265.66372017 226.57854786 -256.41509685 226.36284316 -245.5625 226 C-200.6771897 224.46986951 -155.36991958 211.34281903 -118 186 C-117.22269531 185.54109375 -116.44539062 185.0821875 -115.64453125 184.609375 C-104.85526335 178.04338035 -94.32886874 170.48709046 -85.5 161.4375 C-83.42560291 159.41496283 -81.46795302 157.85719066 -79.125 156.1875 C-75.5546991 153.56130101 -72.79914347 150.70897217 -69.96875 147.3125 C-68.08007687 145.09405855 -66.10428565 142.98154447 -64.09814453 140.86962891 C-54.97471666 131.20302707 -47.71970541 120.31822612 -40.59375 109.1328125 C-40.0678125 108.42898438 -39.541875 107.72515625 -39 107 C-38.34 107 -37.68 107 -37 107 C-36.64228516 105.74316406 -36.64228516 105.74316406 -36.27734375 104.4609375 C-34.56103396 99.81063025 -32.01484531 95.90894923 -29.36523438 91.7421875 C-26.97790365 87.89703585 -25.20097882 84.16674301 -23.69995117 79.8984375 C-22.64941518 77.04912885 -21.24401741 74.39577357 -19.875 71.6875 C-9.03497946 48.88759779 -4.28711895 24.67344811 0 0 Z " fill="#040404" transform="translate(300,249)"/>
<path d="M0 0 C2.43679446 0.37171441 3.67040409 0.60609269 5.28125 2.53125 C5.88453125 3.50578125 5.88453125 3.50578125 6.5 4.5 C14.73339843 15.93641628 27.00022526 21.23403537 40.5390625 23.625 C53.18743884 24.9954787 67.36289208 22.84278007 77.66015625 14.96484375 C79.40732218 13.53945802 81.1346537 12.08922186 82.8359375 10.609375 C85 9 85 9 88 9 C88.38136583 23.44423068 83.52631962 36.46228817 79 50 C78.47201115 51.62999951 77.94459416 53.26018447 77.41796875 54.890625 C73.22507077 67.58622394 67.45186146 79.47469557 60.32421875 90.7890625 C58.91953033 93.06253963 58.91953033 93.06253963 57.625 95.8203125 C55.75390785 99.48153608 53.60328152 102.8412504 51.3125 106.25 C50.65157349 107.23625366 50.65157349 107.23625366 49.97729492 108.24243164 C46.25956261 113.72942597 42.28771867 118.94338663 38 124 C37.17628906 124.97259766 37.17628906 124.97259766 36.3359375 125.96484375 C34.58082402 127.99861269 32.79431095 130.00072768 31 132 C30.22269531 132.88171875 29.44539062 133.7634375 28.64453125 134.671875 C10.77425258 154.62745946 10.77425258 154.62745946 1 161 C0.34 161 -0.32 161 -1 161 C-1.33 161.99 -1.66 162.98 -2 164 C-3.93359375 165.578125 -3.93359375 165.578125 -6.4375 167.25 C-7.35273438 167.86746094 -8.26796875 168.48492187 -9.2109375 169.12109375 C-10.13132813 169.74113281 -11.05171875 170.36117187 -12 171 C-13.52139111 172.10339799 -15.04222826 173.20756023 -16.5625 174.3125 C-30.500582 183.9935244 -45.37315238 191.44751247 -61 198 C-62.29236572 198.54551514 -62.29236572 198.54551514 -63.61083984 199.10205078 C-92.48570791 211.05008193 -139.68046881 224.63392019 -170.09765625 213.40234375 C-179.72635435 208.74998491 -186.52331349 203.33085053 -192.0625 194.1875 C-192.79146484 193.00220703 -192.79146484 193.00220703 -193.53515625 191.79296875 C-197.07336871 185.04677698 -198.5363787 179.31969999 -198.4375 171.6875 C-198.42396484 170.43356445 -198.42396484 170.43356445 -198.41015625 169.15429688 C-198.08439842 157.49035687 -193.85281607 148.64319691 -186 140 C-175.06932472 130.27404968 -166.36043602 127.67554384 -152.0625 127 C-128.1976675 125.57154427 -106.43117827 120.82408139 -84.6875 110.5 C-83.76372559 110.06171875 -82.83995117 109.6234375 -81.88818359 109.171875 C-75.48407731 106.00877911 -69.73353136 102.24860119 -64 98 C-63.35522705 97.52304687 -62.7104541 97.04609375 -62.04614258 96.5546875 C-60.37347224 95.30059056 -58.71543463 94.02995431 -57.0625 92.75 C-56.51271484 92.32976562 -55.96292969 91.90953125 -55.39648438 91.4765625 C-53.23228128 89.80815866 -51.15692408 88.16076854 -49.24609375 86.203125 C-48 85 -48 85 -46 85 C-45.67 84.01 -45.34 83.02 -45 82 C-43.62264986 80.89811989 -42.24518065 79.79638837 -40.8671875 78.6953125 C-36.7323505 74.94108812 -33.42234843 70.39347636 -30 66 C-29.33871094 65.16597656 -28.67742187 64.33195312 -27.99609375 63.47265625 C-18.38625926 50.87309547 -11.45248502 36.8125843 -6 22 C-5.69578125 21.26910156 -5.3915625 20.53820312 -5.078125 19.78515625 C-2.45611058 13.45753982 -1.32537655 6.69268157 0 0 Z " fill="#050505" transform="translate(198,248)"/>
<path d="M0 0 C3.24271506 0.5590888 4.93057424 1.4132178 7 4 C7 4.66 7 5.32 7 6 C7.84498047 6.40605469 7.84498047 6.40605469 8.70703125 6.8203125 C11.11741079 8.06040555 13.38558028 9.44417711 15.6875 10.875 C26.5916622 17.4399141 36.36297665 20.11726675 49 21 C48.13706322 26.25606951 46.13371637 30.92307787 44.15625 35.84375 C42.4725449 40.43980986 41.87358026 44.74829935 41.60546875 49.62109375 C39.61770016 82.40230676 33.01381156 116.10139816 11 142 C10.34 142 9.68 142 9 142 C8.76023438 142.7321875 8.52046875 143.464375 8.2734375 144.21875 C6.82138609 147.39010154 5.15340908 149.11439143 2.625 151.5 C0.19493944 153.83733965 -2.00765563 156.00997552 -4.0625 158.6875 C-6.3481677 161.415555 -8.8634072 163.26449042 -11.7421875 165.3359375 C-14.15852512 167.11683685 -16.44361986 169.01675255 -18.75 170.9375 C-24.18872849 175.28190036 -29.8588926 178.73624292 -36 182 C-36.96728027 182.52811279 -36.96728027 182.52811279 -37.95410156 183.06689453 C-57.41553819 193.56330871 -78.60467363 198.44217135 -100.56542969 199.83935547 C-116.20179925 200.87111752 -127.45638366 203.02401807 -140.3359375 212.48828125 C-143 214 -143 214 -145.1640625 214.16796875 C-148.21647608 212.22611415 -149.11333811 209.35192061 -150 206 C-150.44906197 202.75903554 -150.52453584 199.5816683 -150.5 196.3125 C-150.49427979 195.42836426 -150.48855957 194.54422852 -150.48266602 193.63330078 C-150.28163145 186.23495818 -148.78900663 180.42106467 -145 174 C-144.50371094 173.12085938 -144.00742188 172.24171875 -143.49609375 171.3359375 C-137.4456364 161.68436457 -127.94514676 155.03444759 -117 152 C-113.8238264 151.38153715 -110.64551639 150.81854098 -107.45532227 150.27954102 C-99.00938199 148.77530774 -91.03532817 145.94942886 -83 143 C-81.95328125 142.62101563 -80.9065625 142.24203125 -79.828125 141.8515625 C-64.91222454 136.04177807 -51.65856803 127.9194081 -40 117 C-39.27039063 116.32710938 -38.54078125 115.65421875 -37.7890625 114.9609375 C-34.27588831 111.59599851 -31.58926915 108.14283064 -29 104 C-28.236875 102.97777344 -27.47375 101.95554687 -26.6875 100.90234375 C-16.41265618 86.54308996 -11.15597007 68.94632623 -7 52 C-6.60458008 50.38810791 -6.60458008 50.38810791 -6.20117188 48.74365234 C-4.11638732 39.69028238 -3.13021596 30.7342315 -2.375 21.5 C-2.19387837 19.37303156 -2.01022122 17.24631138 -1.82437134 15.11975098 C-1.65873997 13.21239019 -1.49980191 11.30445156 -1.34130859 9.39648438 C-1.02313925 6.23026696 -0.56269745 3.13101364 0 0 Z " fill="#080808" transform="translate(150,165)"/>
<path d="M0 0 C0.886875 0.70125 1.77375 1.4025 2.6875 2.125 C3.780625 2.764375 4.87375 3.40375 6 4.0625 C13.02985077 9.13526536 19.31614585 18.8119186 21.3203125 27.19921875 C22.65447319 37.82992471 23.18125145 48.59601519 17.6875 58.125 C17.17832031 59.04796875 16.66914063 59.9709375 16.14453125 60.921875 C9.31810221 72.48150312 0.93725904 78.08442177 -11.69921875 82.23828125 C-25.16518697 85.54290264 -36.4304084 82.06921719 -48.14453125 75.56640625 C-53.8748156 71.75654152 -57.33255384 68.18873996 -60.5625 62.1875 C-60.90023438 61.59259766 -61.23796875 60.99769531 -61.5859375 60.38476562 C-67.10490336 50.44410861 -68.85425862 39.74331033 -66.125 28.6875 C-64.55248999 23.34982519 -62.28669686 18.80891482 -59.3125 14.125 C-58.75949219 13.20074219 -58.75949219 13.20074219 -58.1953125 12.2578125 C-52.37891549 3.23236886 -43.19944294 -1.9130739 -32.95703125 -4.4609375 C-21.98466539 -6.17891502 -9.79176225 -5.54250693 0 0 Z " fill="#080808" transform="translate(420.3125,91.875)"/>
<path d="M0 0 C0.93247559 0.00902344 1.86495117 0.01804688 2.82568359 0.02734375 C15.37901511 0.34442492 24.0457754 5.45807015 33.25390625 13.9375 C40.68629851 22.13876043 45.43805634 35.25736271 44.91015625 46.3203125 C43.36881614 57.764235 39.44362318 69.54911134 30.625 77.4375 C27.10245991 80.05995887 23.45790014 82.29869937 19.625 84.4375 C18.87734375 84.87578125 18.1296875 85.3140625 17.359375 85.765625 C8.2713732 90.27784967 -3.4901489 89.80438217 -13.17578125 87.5546875 C-25.04641634 83.34207669 -34.26073002 75.42728944 -40.50390625 64.453125 C-45.00454326 54.62564709 -45.12667613 38.85118321 -42.265625 28.44921875 C-40.29835406 24.00560236 -37.34542742 20.25009256 -34.375 16.4375 C-33.6325 15.385625 -32.89 14.33375 -32.125 13.25 C-23.15674002 4.07791593 -12.61111464 -0.14529457 0 0 Z " fill="#080808" transform="translate(346.375,-0.4375)"/>
<path d="M0 0 C2.6875 2.4375 2.6875 2.4375 5 5 C5.825 5.886875 6.65 6.77375 7.5 7.6875 C15.96975532 18.05426676 17.87469921 29.97518205 17 43 C14.92383244 54.95418353 8.20206362 65.02977589 -1.35546875 72.2890625 C-12.5376432 79.52361554 -25.25329904 82.01854754 -38.30078125 79.31640625 C-51.47221867 75.19926433 -61.02433787 68.19918929 -67.6796875 55.89453125 C-72.6267783 45.04898603 -72.83687576 29.91663857 -69.171875 18.55859375 C-63.9724937 7.20661124 -55.17122189 -0.80636175 -44 -6 C-30.263535 -11.06080289 -11.55805942 -9.10062156 0 0 Z " fill="#080808" transform="translate(324,95)"/>
<path d="M0 0 C1.25296875 0.74636719 1.25296875 0.74636719 2.53125 1.5078125 C13.69775005 8.7391303 19.576033 17.33554228 23.61328125 29.91015625 C25.28711129 38.95560141 24.47615814 48.52119689 21 57 C20.74476563 57.67160156 20.48953125 58.34320313 20.2265625 59.03515625 C15.47962386 69.98795504 6.33979879 77.20524726 -4.2578125 82.02734375 C-14.49418523 85.79224694 -27.55024153 85.6048301 -37.51953125 81.24609375 C-38.74736328 80.62927734 -38.74736328 80.62927734 -40 80 C-40.84949219 79.59910156 -41.69898438 79.19820313 -42.57421875 78.78515625 C-52.74641427 73.41087225 -59.23212103 64.83115862 -62.66113281 53.9050293 C-65.821957 42.25425479 -65.02401619 30.02905329 -60 19 C-53.86078606 8.72556423 -43.7462229 -0.16835299 -32.13452148 -3.54199219 C-21.9984956 -5.71689606 -8.93071474 -5.46844489 0 0 Z " fill="#080808" transform="translate(266,4)"/>
<path d="M0 0 C2.75390625 2.5625 2.75390625 2.5625 5 5 C5.825 5.763125 6.65 6.52625 7.5 7.3125 C16.39518611 16.87482507 19.7709091 28.37316594 19.38671875 41.31640625 C17.91271276 55.35668554 10.72183818 66.13885067 0 75 C-11.2064714 81.76171059 -23.42878876 83.6725241 -36.125 80.75 C-43.25996685 78.79910406 -49.54230146 76.11659238 -55 71 C-55 70.34 -55 69.68 -55 69 C-55.598125 68.73832031 -56.19625 68.47664063 -56.8125 68.20703125 C-62.51411758 65.06096012 -65.2811507 58.98764802 -67.375 53.0625 C-70.99846495 39.85290625 -70.00336509 27.3384951 -64 15 C-57.92237603 5.31086486 -49.72483057 -1.99565738 -38.66015625 -5.296875 C-25.17882291 -7.88667223 -11.99203894 -7.04245853 0 0 Z " fill="#080808" transform="translate(271,180)"/>
<path d="M0 0 C3.64778539 2.7370374 6.85703622 5.70266668 10 9 C10.78117187 9.70189453 10.78117187 9.70189453 11.578125 10.41796875 C18.94411184 18.61364092 21.51865491 30.10252057 21.31640625 40.78125 C20.13862992 52.7625796 15.10172009 63.42381694 6.55078125 71.78515625 C5 73 5 73 3 73 C3 73.66 3 74.32 3 75 C-10.34175088 82.32204549 -22.21101902 85.09894227 -37.0546875 80.9609375 C-50.01345861 76.73300952 -58.58345776 68.67209694 -64.94140625 56.640625 C-68.74463541 47.15360319 -69.02952821 30.49177755 -65 21 C-59.14256111 9.80434118 -51.78666724 1.76639522 -40 -3 C-39.10539062 -3.36480469 -38.21078125 -3.72960937 -37.2890625 -4.10546875 C-25.30037784 -7.36604926 -10.84321743 -6.00866189 0 0 Z " fill="#070707" transform="translate(370,179)"/>
<path d="M0 0 C9.44092855 7.09572974 16.72459731 16.08117126 18.8125 27.875 C19.95356736 40.40368912 19.51428487 52.59094814 12 63.1875 C10.95910939 64.43501901 9.89663063 65.66486872 8.8125 66.875 C8.31105469 67.47957031 7.80960937 68.08414063 7.29296875 68.70703125 C0.48154716 76.31394733 -10.19547853 81.39787695 -20.3359375 82.08984375 C-33.57318698 82.44877134 -43.70627143 79.30255798 -54.375 71.5625 C-63.42340781 62.91624365 -69.17418846 51.07555815 -69.5 38.4375 C-69.38133774 27.61286519 -65.66142869 17.52926737 -59.1875 8.875 C-56.625 6.5625 -56.625 6.5625 -54.1875 4.875 C-53.424375 4.05 -52.66125 3.225 -51.875 2.375 C-38.79824055 -9.78942739 -14.38052833 -9.39092077 0 0 Z " fill="#060606" transform="translate(220.1875,93.125)"/>
<path d="M0 0 C-0.26102643 14.64120967 -2.90211854 28.98725457 -5.38427734 43.37890625 C-5.89539649 46.38482185 -6.37372091 49.39200055 -6.83203125 52.40625 C-8.69784208 64.02979469 -11.96529964 75.19068226 -15.375 86.4375 C-15.6058429 87.20436127 -15.83668579 87.97122253 -16.07452393 88.76132202 C-18.80094499 97.76135884 -21.84860853 106.45221969 -25.68383789 115.04223633 C-26.89028677 117.75344542 -27.99799541 120.48058712 -29.0625 123.25 C-30.73005273 127.46711682 -32.66463049 131.49383562 -34.734375 135.52734375 C-35.53564091 137.09277992 -36.31927701 138.66747403 -37.078125 140.25390625 C-42.28280208 151.08476595 -48.29559767 162.08987462 -55.828125 171.484375 C-57.19436154 173.17553787 -57.19436154 173.17553787 -58.6875 176 C-59.3371875 176.99 -59.3371875 176.99 -60 178 C-60.99 178 -61.98 178 -63 178 C-61.42635554 172.61352718 -59.76959165 167.26566156 -57.984375 161.9453125 C-49.08274941 135.02773498 -43.69046305 107.2240473 -41 79 C-40.89631104 77.93845703 -40.89631104 77.93845703 -40.79052734 76.85546875 C-40.39025824 72.57185005 -40.15450777 68.29895154 -40 64 C-39.96745117 63.27006836 -39.93490234 62.54013672 -39.90136719 61.78808594 C-39.29305977 46.94907177 -40.97650131 34.26660863 -48 21 C-47.67 20.01 -47.34 19.02 -47 18 C-46.01902344 17.92523438 -45.03804688 17.85046875 -44.02734375 17.7734375 C-30.72277784 16.55426754 -16.11789485 13.20767532 -6.875 2.75 C-4 0 -4 0 0 0 Z " fill="#121212" transform="translate(441,168)"/>
<path d="M0 0 C0 4.08603697 -1.09382488 6.0334132 -3.875 9 C-4.57625 9.66 -5.2775 10.32 -6 11 C-6.7425 11.7425 -7.485 12.485 -8.25 13.25 C-8.8275 13.8275 -9.405 14.405 -10 15 C-10.33 14.34 -10.66 13.68 -11 13 C-11.66 12.67 -12.32 12.34 -13 12 C-11.37660195 10.29115995 -9.70680947 8.62553283 -8 7 C-7.34 7 -6.68 7 -6 7 C-5.67 6.01 -5.34 5.02 -5 4 C-3.37667033 2.61423077 -1.71275535 1.27358732 0 0 Z " fill="#4A4A4A" transform="translate(158,326)"/>
<path d="M0 0 C1.75 0.0625 1.75 0.0625 4 1 C5.59501537 3.24164322 6.74543018 5.53566643 8 8 C5.69 7.34 3.38 6.68 1 6 C0.87625 6.804375 0.7525 7.60875 0.625 8.4375 C0.41875 9.283125 0.2125 10.12875 0 11 C-0.99 11.495 -0.99 11.495 -2 12 C-1.85831863 10.56208484 -1.71148957 9.1246763 -1.5625 7.6875 C-1.48128906 6.88699219 -1.40007812 6.08648437 -1.31640625 5.26171875 C-1 3 -1 3 0 0 Z " fill="#474747" transform="translate(198,248)"/>
<path d="M0 0 C0.66 0.99 1.32 1.98 2 3 C1.54109375 3.37511719 1.0821875 3.75023437 0.609375 4.13671875 C-2.28119921 6.5475548 -4.81293311 8.75791344 -7.125 11.75 C-9.2608183 14.31298196 -10.85920627 15.0081704 -14 16 C-14.66 16.33 -15.32 16.66 -16 17 C-14.71003627 13.13010881 -12.23748966 11.70498257 -8.953125 9.50390625 C-5.46603494 6.81884691 -2.77207782 3.39558468 0 0 Z " fill="#595959" transform="translate(232,394)"/>
<path d="M0 0 C0.33 0 0.66 0 1 0 C2.8935884 9.46794198 1.57150162 16.81606563 -1 26 C-1.33 26 -1.66 26 -2 26 C-2 23.03 -2 20.06 -2 17 C-1.34 17 -0.68 17 0 17 C0 11.39 0 5.78 0 0 Z " fill="#7E7E7E" transform="translate(389,34)"/>
<path d="M0 0 C0.99 0.33 1.98 0.66 3 1 C4 4 4 4 3.109375 6.04296875 C2.66078125 6.75066406 2.2121875 7.45835937 1.75 8.1875 C1.31171875 8.90292969 0.8734375 9.61835938 0.421875 10.35546875 C-0.04734375 10.89816406 -0.5165625 11.44085938 -1 12 C-1.99 12 -2.98 12 -4 12 C-3.52309796 10.37433394 -3.04340334 8.74948689 -2.5625 7.125 C-2.29566406 6.22007812 -2.02882813 5.31515625 -1.75390625 4.3828125 C-1 2 -1 2 0 0 Z " fill="#666666" transform="translate(382,334)"/>
<path d="M0 0 C0.33 0.66 0.66 1.32 1 2 C1.66 2 2.32 2 3 2 C3 2.66 3 3.32 3 4 C4.65 4.33 6.3 4.66 8 5 C7.67 5.99 7.34 6.98 7 8 C6.34 8 5.68 8 5 8 C5.33 9.65 5.66 11.3 6 13 C3.01947605 10.44526518 1.53659812 7.58539561 0 4 C0 2.68 0 1.36 0 0 Z " fill="#555555" transform="translate(304,229)"/>
<path d="M0 0 C0.66 0.33 1.32 0.66 2 1 C0.85807217 2.14192783 -0.28449238 3.28322385 -1.4296875 4.421875 C-2.57015032 5.56801177 -3.69887306 6.72586815 -4.8203125 7.890625 C-5.43648437 8.52484375 -6.05265625 9.1590625 -6.6875 9.8125 C-7.26886719 10.41707031 -7.85023438 11.02164062 -8.44921875 11.64453125 C-10 13 -10 13 -12 13 C-10.61536056 9.87250593 -9.00477577 7.7595015 -6.5625 5.375 C-5.96566406 4.78460937 -5.36882812 4.19421875 -4.75390625 3.5859375 C-3 2 -3 2 0 0 Z " fill="#4C4C4C" transform="translate(222,6)"/>
<path d="M0 0 C5.94 0.66 11.88 1.32 18 2 C17 7 17 7 15 10 C14.67 8.68 14.34 7.36 14 6 C14.66 6 15.32 6 16 6 C15.67 5.34 15.34 4.68 15 4 C12.28553021 3.68758545 9.66090639 3.48663408 6.9375 3.375 C5.79958008 3.31699219 5.79958008 3.31699219 4.63867188 3.2578125 C2.75952805 3.16326438 0.87979664 3.08053244 -1 3 C-0.67 2.01 -0.34 1.02 0 0 Z " fill="#525252" transform="translate(181,184)"/>
<path d="M0 0 C0.66 0.33 1.32 0.66 2 1 C1.57847656 1.55429688 1.15695313 2.10859375 0.72265625 2.6796875 C0.17480469 3.40414062 -0.37304688 4.12859375 -0.9375 4.875 C-1.75541016 5.95394531 -1.75541016 5.95394531 -2.58984375 7.0546875 C-4.03964624 8.94357079 -4.03964624 8.94357079 -5 11 C-6.64363134 11.72159424 -8.31050386 12.39351421 -10 13 C-8.60004691 8.10016418 -5.91794204 6.10170412 -2 3 C-1.34 2.01 -0.68 1.02 0 0 Z " fill="#595959" transform="translate(168,95)"/>
<path d="M0 0 C-2.33728166 5.94944422 -7.4518577 8.4194687 -13 11 C-11.52841629 7.38502261 -9.58537669 5.59408489 -6.5 3.25 C-5.7059375 2.63640625 -4.911875 2.0228125 -4.09375 1.390625 C-2 0 -2 0 0 0 Z " fill="#6D6D6D" transform="translate(377,92)"/>
<path d="M0 0 C0.33 0 0.66 0 1 0 C1.0543251 3.02107902 1.09382927 6.04116528 1.125 9.0625 C1.14175781 9.91005859 1.15851563 10.75761719 1.17578125 11.63085938 C1.21596135 16.83418201 0.69745815 21.07469821 -1 26 C-3 23 -3 23 -3 21 C-2.34 21 -1.68 21 -1 21 C-0.67 14.07 -0.34 7.14 0 0 Z " fill="#606060" transform="translate(238,121)"/>
<path d="M0 0 C0.66 0.33 1.32 0.66 2 1 C1.360625 1.7425 0.72125 2.485 0.0625 3.25 C-2.11621894 5.72351236 -2.11621894 5.72351236 -2.375 8.125 C-3 10 -3 10 -6.0625 11.75 C-7.5165625 12.36875 -7.5165625 12.36875 -9 13 C-7.60073881 9.99192643 -5.94941211 7.4472645 -3.9375 4.8125 C-3.41027344 4.11769531 -2.88304687 3.42289062 -2.33984375 2.70703125 C-1 1 -1 1 0 0 Z " fill="#757575" transform="translate(14,386)"/>
<path d="M0 0 C0.33 0 0.66 0 1 0 C0.39700836 7.23589973 -1.1150587 13.99370876 -3 21 C-3.33 21 -3.66 21 -4 21 C-2.30154028 5.06338863 -2.30154028 5.06338863 0 0 Z " fill="#A3A3A3" transform="translate(382,289)"/>
<path d="M0 0 C0.99 0.33 1.98 0.66 3 1 C3 1.66 3 2.32 3 3 C1.35 3.66 -0.3 4.32 -2 5 C-2 6.65 -2 8.3 -2 10 C-3.98 10.99 -3.98 10.99 -6 12 C-4.68139111 7.38486888 -2.78644563 3.90102388 0 0 Z " fill="#606060" transform="translate(182,293)"/>
<path d="M0 0 C-3.73572939 4.82029598 -3.73572939 4.82029598 -7.3359375 5.33203125 C-9.5758033 5.31436669 -11.77120799 5.21850902 -14 5 C-11.75043698 2.75043698 -9.93676737 1.99489035 -7 0.8125 C-6.113125 0.44769531 -5.22625 0.08289063 -4.3125 -0.29296875 C-2 -1 -2 -1 0 0 Z " fill="#6B6B6B" transform="translate(81,304)"/>
<path d="M0 0 C1 1 2 2 3 3 C3.5775 3.4125 4.155 3.825 4.75 4.25 C6 6 6 6 5.6875 9.6875 C5.460625 10.780625 5.23375 11.87375 5 13 C2.05633121 8.58449682 0 5.38909875 0 0 Z " fill="#454545" transform="translate(153,141)"/>
<path d="M0 0 C2.62187494 1.04874998 3.79371361 1.64931313 5.25 4.125 C5.4975 4.74375 5.745 5.3625 6 6 C4.68 5.67 3.36 5.34 2 5 C1.67 5.99 1.34 6.98 1 8 C0 7 0 7 -0.0625 3.4375 C-0.041875 2.303125 -0.02125 1.16875 0 0 Z " fill="#444444" transform="translate(151,165)"/>
<path d="M0 0 C-1.28299758 2.86207152 -2.530636 5.0245088 -5 7 C-5.99 7 -6.98 7 -8 7 C-6.47663111 3.31852519 -4.31953005 0 0 0 Z " fill="#707070" transform="translate(18,326)"/>
<path d="M0 0 C0.66 0.33 1.32 0.66 2 1 C1.34 2.32 0.68 3.64 0 5 C-0.66 5 -1.32 5 -2 5 C-2 5.99 -2 6.98 -2 8 C-2.66 7.67 -3.32 7.34 -4 7 C-4.99 7.33 -5.98 7.66 -7 8 C-5.50902342 4.2047869 -3.24299151 2.38957269 0 0 Z " fill="#555555" transform="translate(321,7)"/>
<path d="M0 0 C-1.32 1.32 -2.64 2.64 -4 4 C-4 3.34 -4 2.68 -4 2 C-4.94875 2.515625 -5.8975 3.03125 -6.875 3.5625 C-7.90625 4.036875 -8.9375 4.51125 -10 5 C-10.66 4.67 -11.32 4.34 -12 4 C-4.17391304 -1.39130435 -4.17391304 -1.39130435 0 0 Z " fill="#8C8C8C" transform="translate(32,378)"/>
<path d="M0 0 C0.66 0.33 1.32 0.66 2 1 C0.02 3.31 -1.96 5.62 -4 8 C-5.32 7.67 -6.64 7.34 -8 7 C-5.36 4.69 -2.72 2.38 0 0 Z " fill="#7E7E7E" transform="translate(104,287)"/>
<path d="M0 0 C-1.2748209 2.84383123 -2.45137078 5.13754018 -5 7 C-7.1015625 6.57421875 -7.1015625 6.57421875 -9 6 C-7.8803014 4.99406757 -6.7540588 3.9954151 -5.625 3 C-4.68527344 2.1646875 -4.68527344 2.1646875 -3.7265625 1.3125 C-2 0 -2 0 0 0 Z " fill="#626262" transform="translate(273,94)"/>
<path d="M0 0 C1.65 0.33 3.3 0.66 5 1 C2.6875 3.5 2.6875 3.5 0 6 C-0.99 6 -1.98 6 -3 6 C-2.01 4.02 -1.02 2.04 0 0 Z " fill="#5E5E5E" transform="translate(256,487)"/>
<path d="M0 0 C0.75 1.6875 0.75 1.6875 1 4 C-1.13381449 7.2769294 -2.25018012 8.75006004 -6 10 C-4.6302836 6.00499382 -2.74277578 3.19990508 0 0 Z " fill="#757575" transform="translate(256,364)"/>
<path d="M0 0 C0.33 0.66 0.66 1.32 1 2 C3.02463255 2.65213292 3.02463255 2.65213292 5 3 C5 5.31 5 7.62 5 10 C2.66063182 7.87330165 1.19346152 5.93775144 0 3 C0 2.01 0 1.02 0 0 Z " fill="#787878" transform="translate(255,145)"/>
<path d="M0 0 C0.66 0.33 1.32 0.66 2 1 C1.67 1.99 1.34 2.98 1 4 C-1.8125 5.0625 -1.8125 5.0625 -5 6 C-6.34721283 6.63815344 -7.68747118 7.29325371 -9 8 C-6.37347975 4.40069448 -4.06036357 1.92333011 0 0 Z " fill="#717171" transform="translate(21,482)"/>
<path d="M0 0 C0.99 0.33 1.98 0.66 3 1 C-3.28571429 6.57142857 -3.28571429 6.57142857 -7 7 C-4.66666667 4.66666667 -2.33333333 2.33333333 0 0 Z " fill="#5A5A5A" transform="translate(212,413)"/>
<path d="M0 0 C-0.33 1.32 -0.66 2.64 -1 4 C-4.63 4 -8.26 4 -12 4 C-4 0 -4 0 0 0 Z " fill="#7F7F7F" transform="translate(369,268)"/>
<path d="M0 0 C1.32 0.33 2.64 0.66 4 1 C3.67 1.66 3.34 2.32 3 3 C2.67 2.67 2.34 2.34 2 2 C1.896875 3.093125 1.79375 4.18625 1.6875 5.3125 C0.98885988 9.05975155 0.68602762 9.65962741 -2 12 C-1.85831863 10.56208484 -1.71148957 9.1246763 -1.5625 7.6875 C-1.48128906 6.88699219 -1.40007812 6.08648437 -1.31640625 5.26171875 C-1 3 -1 3 0 0 Z " fill="#BABABA" transform="translate(198,248)"/>
<path d="M0 0 C1.70884005 1.62339805 3.37446717 3.29319053 5 5 C5 5.66 5 6.32 5 7 C4.01 7.33 3.02 7.66 2 8 C1.34 7.67 0.68 7.34 0 7 C0 4.69 0 2.38 0 0 Z " fill="#5D5D5D" transform="translate(228,101)"/>
<path d="M0 0 C0.66 0.99 1.32 1.98 2 3 C-0.88035092 5.24027294 -3.84866512 7.16172132 -7 9 C-5.44499019 5.18315774 -2.96404505 2.80804268 0 0 Z " fill="#666666" transform="translate(243,382)"/>
<path d="M0 0 C0 0.66 0 1.32 0 2 C-1.2065625 2.433125 -1.2065625 2.433125 -2.4375 2.875 C-5.1326468 3.73262568 -5.1326468 3.73262568 -6 6 C-7.65 5.67 -9.3 5.34 -11 5 C-7.72709962 2.33319229 -4.35126896 0 0 0 Z " fill="#4B4B4B" transform="translate(108,362)"/>
<path d="M0 0 C0.66 0.66 1.32 1.32 2 2 C0.38405168 4.04119788 -1.2856382 6.04072937 -3 8 C-3.66 8 -4.32 8 -5 8 C-3.8141763 4.62496331 -2.72426311 2.35277269 0 0 Z " fill="#555555" transform="translate(314,187)"/>
<path d="M0 0 C0.309375 1.11375 0.61875 2.2275 0.9375 3.375 C1.82326483 6.7945155 1.82326483 6.7945155 3 9 C-0.36720387 7.60667426 -1.9859524 6.0210714 -4 3 C-3.00748537 1.01497074 -2.38353202 0 0 0 Z " fill="#8F8F8F" transform="translate(366,155)"/>
<path d="M0 0 C-0.969375 0.28875 -1.93875 0.5775 -2.9375 0.875 C-6.10664203 1.64214682 -6.10664203 1.64214682 -7 4 C-9.31 3.34 -11.62 2.68 -14 2 C-14 1.67 -14 1.34 -14 1 C-12.41913952 0.63495397 -10.83516093 0.28339494 -9.25 -0.0625 C-8.36828125 -0.25972656 -7.4865625 -0.45695312 -6.578125 -0.66015625 C-4.01320972 -0.99825872 -2.42908361 -0.81158635 0 0 Z " fill="#535353" transform="translate(96,472)"/>
<path d="M0 0 C0.66 0.33 1.32 0.66 2 1 C0.35 2.65 -1.3 4.3 -3 6 C-5.475 5.01 -5.475 5.01 -8 4 C-5.31143836 2.20762558 -3.0466145 1.01553817 0 0 Z " fill="#5C5C5C" transform="translate(152,452)"/>
<path d="M0 0 C0 3.10551666 -0.5393715 4.35261084 -2 7 C-3.32 7 -4.64 7 -6 7 C-4.77065985 3.31197956 -3.06140622 2.27643027 0 0 Z " fill="#5D5D5D" transform="translate(158,326)"/>
<path d="M0 0 C0.66 0.33 1.32 0.66 2 1 C-0.75 5.875 -0.75 5.875 -3 7 C-3.99 6.34 -4.98 5.68 -6 5 C-4.02 3.35 -2.04 1.7 0 0 Z " fill="#7F7F7F" transform="translate(381,259)"/>
<path d="M0 0 C1.43088528 2.86177057 0.59991697 4.93375773 0 8 C-0.66 8 -1.32 8 -2 8 C-2.33 8.66 -2.66 9.32 -3 10 C-2.49287967 6.28111761 -1.88391785 3.26545761 0 0 Z " fill="#838383" transform="translate(358,111)"/>
<path d="M0 0 C0.33 0 0.66 0 1 0 C0.67 2.31 0.34 4.62 0 7 C-0.66 7 -1.32 7 -2 7 C-2.33 7.66 -2.66 8.32 -3 9 C-2.5020163 5.26512223 -2.12508244 3.18762365 0 0 Z " fill="#878787" transform="translate(307,23)"/>
<path d="M0 0 C0.99 0.33 1.98 0.66 3 1 C0.03 3.475 0.03 3.475 -3 6 C-3 5.34 -3 4.68 -3 4 C-3.66 3.67 -4.32 3.34 -5 3 C-2.6875 1.4375 -2.6875 1.4375 0 0 Z " fill="#7B7B7B" transform="translate(27,319)"/>
</svg>
