<?xml version="1.0" encoding="UTF-8"?>
<svg version="1.1" xmlns="http://www.w3.org/2000/svg" width="499" height="500">
<path d="M0 0 C0.76690155 -0.00073517 1.5338031 -0.00147034 2.32394409 -0.00222778 C23.13276671 0.04989081 42.39223499 3.78275828 61.375 12.4375 C62.303125 12.85104736 62.303125 12.85104736 63.25 13.27294922 C70.45680021 16.52105718 77.15520253 20.41765699 83.75 24.75 C84.41153076 25.1828833 85.07306152 25.6157666 85.75463867 26.06176758 C87.33442245 27.13061209 88.86087186 28.27751667 90.375 29.4375 C90.375 30.0975 90.375 30.7575 90.375 31.4375 C90.931875 31.499375 91.48875 31.56125 92.0625 31.625 C95.34598787 32.7786579 96.95359335 34.94376115 99.375 37.4375 C100.37708937 38.41077372 101.38241299 39.38072637 102.390625 40.34765625 C127.29416792 64.50546962 141.57385812 95.78306002 142.78173828 130.59716797 C143.03498343 150.37842807 139.22949813 170.15881493 133.18261719 188.92675781 C132.37036703 191.4519031 131.59417433 193.98629701 130.8203125 196.5234375 C126.7296228 209.62980836 121.3589873 222.05638089 115.68115234 234.54443359 C114.49935906 237.1620505 113.34520365 239.78897056 112.20703125 242.42578125 C106.59974743 255.38927104 100.26615999 267.87178242 92.84765625 279.8984375 C90.33559701 284.22957412 88.17984097 288.73928623 85.98828125 293.23828125 C83.67858724 297.81852191 80.9763381 302.07581727 78.1875 306.375 C75.43385542 310.67648268 72.86930464 315.04653244 70.375 319.5 C67.47410274 324.6725739 64.32983112 329.56882317 60.8203125 334.3515625 C59.45672075 336.31955708 58.38492198 338.27058003 57.375 340.4375 C56.715 340.4375 56.055 340.4375 55.375 340.4375 C55.13136719 341.12457031 54.88773438 341.81164062 54.63671875 342.51953125 C53.15023546 345.95731149 51.23589887 349.00534157 49.1875 352.125 C48.78241211 352.74729492 48.37732422 353.36958984 47.95996094 354.01074219 C44.54315152 359.23438847 41.01554063 364.3669937 37.375 369.4375 C36.6946167 370.38834473 36.6946167 370.38834473 36.00048828 371.35839844 C28.70961434 381.54092293 21.29477469 391.62146456 13.74755859 401.61523438 C12.42622407 403.3694928 11.11199473 405.12879302 9.80078125 406.890625 C6.10739144 411.84770356 2.40943493 416.75234976 -1.625 421.4375 C-4.81501769 420.08368348 -6.37541438 418.80112391 -8.25390625 415.90234375 C-8.72586426 415.1841748 -9.19782227 414.46600586 -9.68408203 413.72607422 C-10.18020996 412.95021973 -10.67633789 412.17436523 -11.1875 411.375 C-11.7119873 410.57078613 -12.23647461 409.76657227 -12.77685547 408.93798828 C-13.86700108 407.26363727 -14.9528955 405.58651121 -16.03466797 403.90673828 C-17.51544326 401.60760392 -19.00723776 399.31615268 -20.50390625 397.02734375 C-25.80879886 388.89767076 -31.00424135 380.70230418 -36.12109375 372.453125 C-37.88290403 369.61570533 -39.67035087 366.79624012 -41.47265625 363.984375 C-41.93728271 363.25484619 -42.40190918 362.52531738 -42.88061523 361.77368164 C-43.77454721 360.37102604 -44.67358149 358.9716055 -45.57836914 357.57592773 C-48.625 352.77467342 -48.625 352.77467342 -48.625 349.4375 C-49.285 349.4375 -49.945 349.4375 -50.625 349.4375 C-50.91632813 348.90382813 -51.20765625 348.37015625 -51.5078125 347.8203125 C-54.30570057 342.73484299 -57.22305017 337.73834437 -60.22265625 332.76953125 C-63.71504858 326.96184818 -66.94764647 321.02315787 -70.18359375 315.0703125 C-71.33235005 312.97204218 -72.49607251 310.88664503 -73.6875 308.8125 C-75.10509793 306.34313587 -76.49863965 303.86708103 -77.875 301.375 C-79.36925172 298.66981035 -80.88829256 295.98452355 -82.44140625 293.3125 C-89.83293789 280.58344356 -96.20545605 267.42239299 -102.46704102 254.10742188 C-104.42053093 249.95663007 -106.41058123 245.83471957 -108.5 241.75 C-110.17398068 238.44743473 -111.52169095 235.15020306 -112.7578125 231.6640625 C-113.84577328 228.87064968 -115.14267598 226.2036999 -116.4375 223.5 C-119.42061767 217.11495256 -121.77520824 210.61638879 -124.0546875 203.953125 C-125.10958848 200.87822938 -126.22052474 197.83279602 -127.3828125 194.796875 C-141.50311418 157.8845023 -146.59436664 119.70198941 -130.625 82.4375 C-128.24590113 77.26422045 -125.5201602 72.33744375 -122.625 67.4375 C-122.0371875 66.43074219 -121.449375 65.42398438 -120.84375 64.38671875 C-117.45612679 58.82023789 -113.6810166 53.97027448 -109.2265625 49.21484375 C-107.55384834 47.51729159 -107.55384834 47.51729159 -106.625 45.4375 C-105.965 45.4375 -105.305 45.4375 -104.625 45.4375 C-104.38523438 44.86386719 -104.14546875 44.29023437 -103.8984375 43.69921875 C-96.30446152 30.21175834 -76.66212777 19.97074031 -62.8125 13.875 C-61.48484619 13.2869458 -61.48484619 13.2869458 -60.13037109 12.68701172 C-49.40551836 7.97580046 -39.16123887 4.62457862 -27.625 2.4375 C-26.86525879 2.26758545 -26.10551758 2.0976709 -25.32275391 1.92260742 C-16.90741256 0.1602447 -8.55878142 -0.00357466 0 0 Z M-57.625 79.4375 C-58.388125 80.159375 -59.15125 80.88125 -59.9375 81.625 C-65.67930236 87.63386293 -70.68031087 93.94465051 -74.51953125 101.33203125 C-75.625 103.4375 -75.625 103.4375 -77.09765625 105.69140625 C-79.04613369 109.19467899 -80.14395657 112.72267522 -81.25 116.5625 C-81.46873779 117.31732666 -81.68747559 118.07215332 -81.9128418 118.84985352 C-83.54849269 124.71328325 -84.48904141 130.33878603 -84.625 136.4375 C-84.66367188 137.20578125 -84.70234375 137.9740625 -84.7421875 138.765625 C-85.43830292 162.12416462 -77.09876955 183.26399726 -61.42578125 200.5703125 C-45.38198612 217.20574433 -23.08845738 227.25742644 0.0625 227.75 C21.8350273 227.57856278 41.86429307 219.52099189 58.375 205.4375 C59.45234208 204.26086372 60.49872957 203.05451305 61.5 201.8125 C63.42574915 199.42873484 64.75020554 198.18736297 67.375 196.4375 C67.705 195.4475 68.035 194.4575 68.375 193.4375 C69.34657597 192.40986186 70.34913412 191.41094707 71.375 190.4375 C75.21650114 185.50278948 77.78353241 180.74134002 80.0625 174.9375 C80.35705078 174.21691406 80.65160156 173.49632812 80.95507812 172.75390625 C84.11167576 164.90851978 85.73775287 157.75592527 86.0625 149.3125 C86.11784912 147.91209473 86.11784912 147.91209473 86.17431641 146.48339844 C86.72861223 130.07055684 84.79147943 113.38066748 75.375 99.4375 C74.65699219 98.365 73.93898438 97.2925 73.19921875 96.1875 C67.10993018 86.52662445 67.10993018 86.52662445 58.875 78.875 C56.84325239 77.54051123 55.22761326 76.28543927 53.52734375 74.53125 C39.55503383 60.93931149 17.92081276 55.83887149 -1.05761719 56.02026367 C-21.39315846 56.75247251 -43.5534783 64.19335149 -57.625 79.4375 Z " fill="#060606" transform="translate(248.625,43.5625)"/>
<path d="M0 0 C0.66 0.33 1.32 0.66 2 1 C-13.48837209 18.49612403 -13.48837209 18.49612403 -18 20 C-16.79618552 17.50638429 -15.54571278 15.31856917 -14 13 C-13.34 13 -12.68 13 -12 13 C-11.77570313 12.43796875 -11.55140625 11.8759375 -11.3203125 11.296875 C-9.61328077 8.32724583 -7.45193456 6.49655833 -4.875 4.25 C-3.96492187 3.45078125 -3.05484375 2.6515625 -2.1171875 1.828125 C-1.41851562 1.22484375 -0.71984375 0.6215625 0 0 Z " fill="#797978" transform="translate(156,76)"/>
<path d="M0 0 C0 4.62330116 -2.87709601 6.79216348 -6 10 C-8.60742426 12.40649372 -11.2766309 14.72591768 -14 17 C-14.99 16.34 -15.98 15.68 -17 15 C-16.50371094 14.6596875 -16.00742187 14.319375 -15.49609375 13.96875 C-10.81323303 10.62765772 -7.09027653 7.08696553 -3.4453125 2.63671875 C-2 1 -2 1 0 0 Z " fill="#5E5E5D" transform="translate(315,240)"/>
<path d="M0 0 C0.66 0.33 1.32 0.66 2 1 C0.73548068 2.31858428 -0.53685475 3.62967631 -1.8125 4.9375 C-2.52019531 5.66839844 -3.22789062 6.39929688 -3.95703125 7.15234375 C-6 9 -6 9 -9 10 C-6.72095555 5.27912222 -4.78895318 2.39447659 0 0 Z " fill="#4A4A4A" transform="translate(147,86)"/>
<path d="M0 0 C0.66 0.33 1.32 0.66 2 1 C0.3125 4 0.3125 4 -2 7 C-4.75 7.375 -4.75 7.375 -7 7 C-4.78071806 4.09197539 -3.07030857 2.04687238 0 0 Z " fill="#7E7E7D" transform="translate(165,69)"/>
<path d="M0 0 C3.057952 1.73559438 5.63379989 3.38472619 8 6 C6.68 6.33 5.36 6.66 4 7 C0 2.25 0 2.25 0 0 Z " fill="#555450" transform="translate(192,249)"/>
<path d="M0 0 C0 0.99 0 1.98 0 3 C-1.98 3.99 -1.98 3.99 -4 5 C-4.66 4.01 -5.32 3.02 -6 2 C-4.02 1.34 -2.04 0.68 0 0 Z " fill="#6D6D6D" transform="translate(249,460)"/>
</svg>
