<?xml version="1.0" encoding="UTF-8"?>
<svg version="1.1" xmlns="http://www.w3.org/2000/svg" width="360" height="360">
<path d="M0 0 C7.26 0 14.52 0 22 0 C26.48200726 10.08451634 26.48200726 10.08451634 27.48046875 14.5390625 C28.60297408 19.32428078 29.78968305 24.08549552 31.05078125 28.8359375 C31.23184921 29.52074692 31.41291718 30.20555634 31.59947205 30.91111755 C32.16951346 33.06600264 32.74094262 35.22051656 33.3125 37.375 C33.51108612 38.1248819 33.70967224 38.87476379 33.91427612 39.64736938 C36.2600107 48.50444838 38.62955578 57.3539099 41.0625 66.1875 C43.4239183 74.76865953 45.66186757 83.37952638 47.875 92 C50.55794711 102.45020099 53.28050145 112.88811623 56.0625 123.3125 C56.38766602 124.53767334 56.71283203 125.76284668 57.04785156 127.02514648 C58.69060595 133.19366463 60.37424805 139.34668832 62.12890625 145.484375 C62.63248657 147.27234497 62.63248657 147.27234497 63.14624023 149.09643555 C63.78234189 151.34905098 64.43092145 153.59819326 65.09399414 155.84301758 C65.3749292 156.84486084 65.65586426 157.8467041 65.9453125 158.87890625 C66.19812988 159.7510376 66.45094727 160.62316895 66.71142578 161.52172852 C67.06531481 164.56092269 66.20191893 166.23130611 65 169 C51.08349053 169.04668124 37.16699316 169.08183691 23.25042152 169.10362434 C16.78899045 169.11407912 10.32761182 169.12826915 3.86621094 169.15087891 C-2.36478824 169.17254697 -8.59573685 169.18455585 -14.82677078 169.18975449 C-17.20871401 169.19346112 -19.59065434 169.20069882 -21.97257614 169.21146011 C-25.29867369 169.22589478 -28.62455997 169.22798131 -31.95068359 169.22705078 C-32.94402206 169.23424133 -33.93736053 169.24143188 -34.96080017 169.24884033 C-35.86386398 169.246091 -36.7669278 169.24334167 -37.69735718 169.24050903 C-38.48456839 169.24235262 -39.27177959 169.24419621 -40.08284569 169.24609566 C-42 169 -42 169 -44 167 C-44.35390088 162.31081339 -43.75714541 159.27513283 -42 155 C-41.3813401 152.90412478 -40.79412156 150.79883335 -40.23046875 148.6875 C-39.90143555 147.45700928 -39.57240234 146.22651855 -39.23339844 144.95874023 C-38.88456261 143.63921381 -38.53593405 142.31963257 -38.1875 141 C-38.00981079 140.33171173 -37.83212158 139.66342346 -37.64904785 138.97488403 C-35.18740399 129.71519881 -32.81908493 120.43836849 -30.72338867 111.08789062 C-29.70605286 106.63089993 -28.49405532 102.28464721 -27.125 97.921875 C-24.94753492 90.96405066 -23.08572766 83.94579751 -21.28027344 76.88452148 C-20.74051293 74.77542967 -20.19475596 72.66794849 -19.6484375 70.56054688 C-19.30173429 69.21363146 -18.95536687 67.86662956 -18.609375 66.51953125 C-18.29967773 65.31401611 -17.98998047 64.10850098 -17.67089844 62.86645508 C-16.92403572 60.16609139 -16.92403572 60.16609139 -17 58 C-16.34 58 -15.68 58 -15 58 C-14.9071875 56.081875 -14.9071875 56.081875 -14.8125 54.125 C-14.15520423 47.66009093 -12.3354076 41.58161449 -10.53515625 35.3671875 C-9.36415439 31.32331739 -8.26133903 27.26503273 -7.18359375 23.1953125 C-6.87373535 22.02613281 -6.56387695 20.85695312 -6.24462891 19.65234375 C-5.63096494 17.33012874 -5.01989338 15.00722686 -4.41162109 12.68359375 C-4.12754395 11.61496094 -3.8434668 10.54632813 -3.55078125 9.4453125 C-3.29981689 8.49156738 -3.04885254 7.53782227 -2.7902832 6.55517578 C-2 4 -2 4 0 0 Z M6 9 C5.13541688 11.93479598 4.28302813 14.87221519 3.4375 17.8125 C3.0672168 19.06256836 3.0672168 19.06256836 2.68945312 20.33789062 C2.46064453 21.14033203 2.23183594 21.94277344 1.99609375 22.76953125 C1.78138428 23.50792236 1.5666748 24.24631348 1.34545898 25.00708008 C0.80338008 27.19949464 0.80338008 27.19949464 2 30 C2.33 29.01 2.66 28.02 3 27 C4.31442953 26.29679503 5.65259834 25.63775466 7 25 C13.66768783 20.48979628 13.66768783 20.48979628 17.42578125 13.8515625 C17.1591084 11.72116185 17.1591084 11.72116185 16 9 C12.7 9 9.4 9 6 9 Z M14.69921875 23.88671875 C14.05146484 24.49580078 13.40371094 25.10488281 12.73632812 25.73242188 C11.7221582 26.70018555 11.7221582 26.70018555 10.6875 27.6875 C10.02298828 28.31333984 9.35847656 28.93917969 8.67382812 29.58398438 C5.05753881 32.99996489 1.4971496 36.46226453 -2 40 C-0.81664062 40.51949219 0.36671875 41.03898437 1.5859375 41.57421875 C3.18252058 42.27812684 4.77885898 42.98259008 6.375 43.6875 C7.19613281 44.049646 8.01726562 44.41179199 8.86328125 44.78491211 C14.09380806 47.10735277 19.21904976 49.55132391 24.25 52.28515625 C24.8275 52.52105469 25.405 52.75695312 26 53 C26.66 52.67 27.32 52.34 28 52 C27.75765625 51.1028125 27.5153125 50.205625 27.265625 49.28125 C24.74018347 39.87883691 22.33491384 30.45143313 20 21 C17.26674398 21 16.66481011 22.0264993 14.69921875 23.88671875 Z M-4 45 C-4.9634478 48.80373196 -5.92357804 52.60828555 -6.88085938 56.41357422 C-7.36420007 58.3321311 -7.85004037 60.25005772 -8.3359375 62.16796875 C-10.07365734 69.08264563 -11.70086631 75.98876981 -13 83 C-5.35904911 78.66488048 2.24830555 74.28019151 9.8125 69.8125 C15.49686921 66.45557903 21.20379618 63.16156572 27 60 C27 59.34 27 58.68 27 58 C26.36497559 57.71278076 25.72995117 57.42556152 25.07568359 57.12963867 C22.1749062 55.8168028 19.27494777 54.50216737 16.375 53.1875 C15.37597656 52.73568359 14.37695312 52.28386719 13.34765625 51.81835938 C9.34802107 50.00395534 5.37764672 48.19552219 1.4765625 46.17578125 C-0.99476346 44.78555879 -0.99476346 44.78555879 -4 45 Z M24.125 66.625 C19.16089465 69.71856305 14.13224935 72.59710012 8.97265625 75.35546875 C4.61988832 77.76350462 0.3738501 80.34262259 -3.87451172 82.92944336 C-6.8637173 84.7444598 -9.83460387 86.50853516 -13 88 C-13 88.66 -13 89.32 -13 90 C-3.26459467 94.16929315 6.4721382 98.26086651 16.41430664 101.91381836 C20.46758581 103.40783357 24.4608985 105.00045694 28.4375 106.6875 C33.22789773 108.71899562 38.04010116 110.42936537 43 112 C41.54770334 102.49801319 39.0225298 93.36406918 36.4375 84.125 C35.81769869 81.89690241 35.19930434 79.66842889 34.58277893 77.43942261 C34.20205759 76.06425503 33.81931355 74.68964524 33.43418884 73.31570435 C32.48374294 69.89606133 31.64142144 66.49130239 31 63 C28.72319666 63 25.92777341 65.49243412 24.125 66.625 Z M-17 94 C-17.77294685 97.06197046 -18.54328711 100.12458942 -19.3125 103.1875 C-19.54179199 104.09991455 -19.77108398 105.0123291 -20.00732422 105.95239258 C-21.2745321 111.01898837 -22.49014037 116.08973483 -23.625 121.1875 C-24.39807342 124.60802597 -25.2512536 127.88884692 -26.4375 131.1875 C-28.8260162 137.9360061 -30.08525744 145.04568315 -31.56689453 152.03637695 C-32.00763748 154.03462696 -32.49468093 156.01718994 -33 158 C-28.40567511 156.30640573 -24.18083267 154.05742958 -19.875 151.75 C-19.11582275 151.34595947 -18.35664551 150.94191895 -17.57446289 150.52563477 C-13.51194575 148.35944829 -9.46732213 146.16402273 -5.4375 143.9375 C-1.25874535 141.6451189 2.98025438 139.4914894 7.25 137.375 C14.28679023 133.88309817 21.27698146 130.30504 28.25 126.6875 C29.25063477 126.17171387 30.25126953 125.65592773 31.28222656 125.12451172 C32.69713379 124.3880542 32.69713379 124.3880542 34.140625 123.63671875 C34.98141602 123.20061279 35.82220703 122.76450684 36.68847656 122.31518555 C38.94760793 121.02980947 40.95962948 119.60604295 43 118 C37.78970087 115.31362083 32.61248868 112.98497476 27.125 110.9375 C15.84337013 106.64490015 4.76470679 101.87308486 -6.33129883 97.12573242 C-7.21197021 96.75424072 -8.0926416 96.38274902 -9 96 C-9.87744873 95.62141846 -10.75489746 95.24283691 -11.65893555 94.8527832 C-14.05454244 93.82886493 -14.05454244 93.82886493 -17 94 Z M38.13671875 125.859375 C37.556978 126.1597316 36.97723724 126.4600882 36.37992859 126.76954651 C34.47912347 127.75678319 32.58325854 128.75311142 30.6875 129.75 C29.36880362 130.43803416 28.04995462 131.12577588 26.73095703 131.81323242 C18.01380385 136.3676529 9.35436533 141.02376607 0.73657227 145.76367188 C-8.11225023 150.63039942 -17.04752421 155.3273452 -26 160 C-26 160.33 -26 160.66 -26 161 C1.06 161 28.12 161 56 161 C55.19632144 154.29346834 55.19632144 154.29346834 53.66015625 147.94140625 C53.2724707 146.61979492 53.2724707 146.61979492 52.87695312 145.27148438 C52.60818359 144.37751953 52.33941406 143.48355469 52.0625 142.5625 C50.13171926 136.07488881 48.39521351 129.62557915 47 123 C43.2723268 123 41.4411269 124.13717186 38.13671875 125.859375 Z " fill="#030303" transform="translate(169,127)"/>
<path d="M0 0 C5.35654509 4.26729549 9.02774004 9.18745212 10.0390625 16.0625 C10.29068333 23.91516662 8.83339941 29.29756676 3.6328125 35.30078125 C-0.21385962 38.55508086 -4.27159733 40.91861199 -9.3671875 41.30078125 C-11.254375 41.45546875 -11.254375 41.45546875 -13.1796875 41.61328125 C-19.17504079 41.52278535 -23.53183707 38.76071909 -28.1171875 35.11328125 C-31.69969295 30.63514944 -34.47417638 25.0226673 -35.3671875 19.30078125 C-34.10571986 12.15639443 -31.33092112 6.26451487 -26.1796875 1.11328125 C-17.8167837 -4.27614564 -8.64204381 -5.52688848 0 0 Z M-20.3671875 8.30078125 C-23.49466889 11.67516907 -25.26246544 13.93939443 -25.6171875 18.55078125 C-25.33821424 22.73538022 -24.74230085 24.85303606 -22.3671875 28.30078125 C-18.38828053 31.40432869 -15.80179024 32.64999207 -10.7421875 32.36328125 C-6.31124489 31.63862965 -4.19745257 29.81717119 -1.3671875 26.30078125 C-0.7071875 25.64078125 -0.0471875 24.98078125 0.6328125 24.30078125 C1.77377353 19.35661678 2.00568272 15.84878251 -0.3671875 11.30078125 C-6.63318211 5.18319177 -12.53356457 3.94876851 -20.3671875 8.30078125 Z " fill="#030303" transform="translate(192.3671875,76.69921875)"/>
<path d="M0 0 C2.5625 0.1875 2.5625 0.1875 4.5625 2.1875 C4.34698805 7.14427482 3.00950553 8.84150562 -0.4375 12.1875 C-7.94362686 21.87040365 -11.46748633 34.22634599 -10.0625 46.375 C-8.46221916 57.14707881 -3.98633183 66.26874605 3.4375 74.1875 C3.80875 74.8475 4.18 75.5075 4.5625 76.1875 C3.75 78.9375 3.75 78.9375 2.5625 81.1875 C-1.24435139 81.26519084 -3.38102444 81.14834631 -6.25 78.5390625 C-17.33380335 64.8327521 -20.65896037 50.42080582 -19.4375 33.1875 C-18.02011516 20.88010889 -12.51204005 9.67757815 -3.4375 1.1875 C-2.4375 0.1875 -2.4375 0.1875 0 0 Z " fill="#030303" transform="translate(115.4375,54.8125)"/>
<path d="M0 0 C8.6596609 7.10536279 14.08250093 18.09510066 16 29 C17.36407785 47.47055485 14.69724204 61.63125881 3.6484375 76.86328125 C1.42704429 79.40713477 0.13111321 79.98487155 -3.25 80.375 C-6 80 -6 80 -7 79 C-7.5 76.4375 -7.5 76.4375 -7 73 C-5.61328125 71.24609375 -5.61328125 71.24609375 -3.8125 69.375 C4.11863377 60.99432829 7.54126008 48.36301861 7.3203125 37 C6.26303545 27.09769785 2.56225906 16.73096049 -4.25 9.375 C-6.61922744 6.78551775 -6.97330418 6.24471165 -7.375 2.5625 C-7.25125 1.716875 -7.1275 0.87125 -7 0 C-4.19664415 -1.40167793 -2.9650644 -0.96536981 0 0 Z " fill="#030303" transform="translate(248,56)"/>
<path d="M0 0 C5.48066821 1.72249572 8.66826443 4.51234788 11.390625 9.59765625 C16.072778 19.59432199 18.05145246 30.80591275 15.31640625 41.73046875 C14.36447185 43.96218217 13.28256993 45.94155443 12 48 C11.54109375 48.8146875 11.0821875 49.629375 10.609375 50.46875 C8.31924622 54.27759575 6.79350073 56.57991138 2.8125 58.6875 C0 59 0 59 -3 57 C-3.44285542 54.09048751 -3.34761813 52.56361386 -1.79296875 50.04296875 C-1.26316406 49.43066406 -0.73335937 48.81835938 -0.1875 48.1875 C5.49736052 40.94367063 6.61982496 34.71483457 6.421875 25.48046875 C5.63338727 18.97544495 2.79886605 14.13023611 -1.375 9.1875 C-3 7 -3 7 -2.875 4.3125 C-2 2 -2 2 0 0 Z " fill="#030303" transform="translate(229,66)"/>
<path d="M0 0 C2.9375 0.1875 2.9375 0.1875 3.9375 1.1875 C4.47994677 4.36468825 4.41735734 6.43154013 2.66796875 9.1875 C1.62058507 10.533044 0.54709208 11.85877891 -0.5546875 13.16015625 C-4.74508494 18.79439529 -5.00940203 25.37326069 -5.0625 32.1875 C-4.64499751 35.01723908 -3.93021264 37.43974329 -3.0625 40.1875 C-2.71584443 41.85144675 -2.37573028 43.51693851 -2.0625 45.1875 C-1.4025 45.1875 -0.7425 45.1875 -0.0625 45.1875 C4.9375 50.64204545 4.9375 50.64204545 4.9375 54.1875 C3 56.4375 3 56.4375 0.9375 58.1875 C-4.59434363 56.60697325 -7.35481516 53.03756711 -10.1953125 48.296875 C-15.92046266 37.52511099 -16.3377458 26.88661178 -13.1875 15.1640625 C-11.06064464 9.53675771 -6.53327288 0.3999963 0 0 Z " fill="#030303" transform="translate(130.0625,66.8125)"/>
<path d="M0 0 C1.65 0.99 3.3 1.98 5 3 C4.37291898 8.51831299 4.37291898 8.51831299 2.5 10.9375 C0.24968157 14.03168784 0 16.18323149 0 20 C1.15631247 22.17221556 2.49780661 24.12184739 3.90234375 26.140625 C5 28 5 28 5.0625 30.875 C4 33 4 33 2.1875 34.4375 C0 35 0 35 -2 34.5625 C-5.7249226 31.65240422 -7.52090932 27.43727205 -9 23 C-9.70290668 15.8672257 -9.34096782 9.89428538 -5 4 C-2.25 1.5 -2.25 1.5 0 0 Z " fill="#020202" transform="translate(144,78)"/>
<path d="M0 0 C3.25 0.125 3.25 0.125 7 1 C12.60573203 7.78588615 12.72130746 14.51461915 12 23 C10.74304789 27.41982619 9.06011766 30.17259109 5.4375 33 C3 34 3 34 0 34 C-1.3125 31.5 -1.3125 31.5 -2 28 C-0.984375 26.13671875 -0.984375 26.13671875 0.4375 24.1875 C3.17950943 20.26927341 3.4742126 17.77116736 2.671875 13.1015625 C2.00649809 10.68313569 2.00649809 10.68313569 -0.1875 7.75 C-0.785625 6.8425 -1.38375 5.935 -2 5 C-1.25 2.125 -1.25 2.125 0 0 Z " fill="#030303" transform="translate(213,79)"/>
<path d="" fill="#000000" transform="translate(0,0)"/>
</svg>
